G04 Generated by Ultiboard 13.0 *
%FSLAX24Y24*%
%MOIN*%

%ADD10C,0.0001*%
%ADD11C,0.0100*%
%ADD12C,0.0080*%
%ADD13C,0.0120*%
%ADD14C,0.0591*%
%ADD15R,0.0591X0.0591*%
%ADD16C,0.0500*%
%ADD17R,0.0177X0.0728*%
%ADD18C,0.0394*%
%ADD19R,0.0208X0.0208*%
%ADD20C,0.0392*%
%ADD21C,0.0633*%
%ADD22C,0.0300*%
%ADD23C,0.0551*%
%ADD24R,0.0551X0.0551*%
%ADD25R,0.0906X0.0748*%
%ADD26R,0.0709X0.0748*%
%ADD27R,0.0157X0.0551*%
%ADD28O,0.0177X0.0669*%


G04 ColorRGB 00FF00 for the following layer *
%LNCopper Top*%
%LPD*%
G54D10*
G36*
X9442Y604D02*
G74*
D01*
G03X9230Y917I338J1*
G01*
X9230Y917D01*
X9298Y985D01*
X9298Y985D01*
X9606Y1293D01*
G75*
D01*
G03X9651Y1400I-105J107*
G01*
X9651Y1400D01*
X9651Y1838D01*
X9890Y2077D01*
G75*
D01*
G03X9935Y2184I-105J107*
G01*
X9935Y2184D01*
X9935Y2524D01*
X11549Y910D01*
G75*
D01*
G03X11921Y924I202J-409*
G01*
X11921Y924D01*
X11921Y950D01*
G74*
D01*
G03X11871Y1071I171J0*
G01*
X11871Y1071D01*
X11792Y1149D01*
X12500Y1149D01*
G74*
D01*
G03X12607Y1194I1J151*
G01*
X12607Y1194D01*
X12906Y1493D01*
G75*
D01*
G03X12951Y1600I-105J107*
G01*
X12951Y1600D01*
X12951Y3438D01*
X13112Y3599D01*
X14542Y3599D01*
G75*
D01*
G03X14542Y3901I408J151*
G01*
X14542Y3901D01*
X13937Y3901D01*
G75*
D01*
G03X14214Y4502I-118J419*
G01*
X14214Y4502D01*
X14706Y4994D01*
G75*
D01*
G03X14751Y5101I-105J107*
G01*
X14751Y5101D01*
X14751Y7238D01*
X15206Y7693D01*
G74*
D01*
G03X15246Y7764I106J106*
G01*
X15246Y7764D01*
X15395Y7764D01*
G75*
D01*
G03X15536Y7905I0J141*
G01*
X15536Y7905D01*
X15536Y8495D01*
G74*
D01*
G03X15395Y8636I141J0*
G01*
X15395Y8636D01*
X15251Y8636D01*
X15251Y8900D01*
G74*
D01*
G03X15206Y9007I151J1*
G01*
X15206Y9007D01*
X15115Y9098D01*
X15079Y9134D01*
X15079Y10242D01*
G75*
D01*
G03X14777Y10242I-151J408*
G01*
X14777Y10242D01*
X14777Y9072D01*
G75*
D01*
G03X14821Y8965I151J0*
G01*
X14821Y8965D01*
X14949Y8838D01*
X14949Y8636D01*
X14805Y8636D01*
G75*
D01*
G03X14664Y8495I0J-141*
G01*
X14664Y8495D01*
X14664Y7905D01*
G75*
D01*
G03X14805Y7764I141J0*
G01*
X14805Y7764D01*
X14851Y7764D01*
X14493Y7407D01*
G75*
D01*
G03X14449Y7300I107J-107*
G01*
X14449Y7300D01*
X14449Y5164D01*
X14001Y4715D01*
G75*
D01*
G03X13700Y3901I-158J-404*
G01*
X13700Y3901D01*
X13050Y3901D01*
G75*
D01*
G03X12943Y3857I0J-151*
G01*
X12943Y3857D01*
X12693Y3607D01*
G75*
D01*
G03X12649Y3500I107J-107*
G01*
X12649Y3500D01*
X12649Y1662D01*
X12438Y1451D01*
X12116Y1451D01*
G75*
D01*
G03X11478Y2035I-287J327*
G01*
X11478Y2035D01*
X10896Y2617D01*
G75*
D01*
G03X11007Y2796I-88J178*
G01*
X11007Y2796D01*
X11007Y2891D01*
X11414Y2891D01*
X11414Y2724D01*
G75*
D01*
G03X11555Y2584I141J1*
G01*
X11555Y2584D01*
X12145Y2584D01*
G75*
D01*
G03X12286Y2724I1J140*
G01*
X12286Y2724D01*
X12286Y3315D01*
G74*
D01*
G03X12145Y3456I141J0*
G01*
X12145Y3456D01*
X11555Y3456D01*
G75*
D01*
G03X11414Y3315I0J-141*
G01*
X11414Y3315D01*
X11414Y3192D01*
X11007Y3192D01*
X11007Y3288D01*
G74*
D01*
G03X10959Y3418I200J0*
G01*
X10959Y3418D01*
X11121Y3579D01*
G75*
D01*
G03X11171Y3700I-121J121*
G01*
X11171Y3700D01*
X11171Y5100D01*
G74*
D01*
G03X11121Y5221I171J0*
G01*
X11121Y5221D01*
X10959Y5382D01*
G75*
D01*
G03X11007Y5512I-152J130*
G01*
X11007Y5512D01*
X11007Y5580D01*
X11149Y5438D01*
X11149Y5300D01*
G75*
D01*
G03X11193Y5193I151J0*
G01*
X11193Y5193D01*
X11631Y4756D01*
X11555Y4756D01*
G75*
D01*
G03X11414Y4615I0J-141*
G01*
X11414Y4615D01*
X11414Y4024D01*
G75*
D01*
G03X11555Y3884I141J1*
G01*
X11555Y3884D01*
X12145Y3884D01*
G75*
D01*
G03X12286Y4024I1J140*
G01*
X12286Y4024D01*
X12286Y4615D01*
G74*
D01*
G03X12145Y4756I141J0*
G01*
X12145Y4756D01*
X12001Y4756D01*
G74*
D01*
G03X11956Y4857I151J7*
G01*
X11956Y4857D01*
X11629Y5184D01*
X12145Y5184D01*
G75*
D01*
G03X12286Y5324I1J140*
G01*
X12286Y5324D01*
X12286Y5915D01*
G74*
D01*
G03X12145Y6056I141J0*
G01*
X12145Y6056D01*
X11951Y6056D01*
X11951Y6100D01*
G74*
D01*
G03X11906Y6207I151J1*
G01*
X11906Y6207D01*
X11707Y6406D01*
G74*
D01*
G03X11650Y6442I107J106*
G01*
G75*
D01*
G03X11600Y6451I-51J-141*
G01*
X11600Y6451D01*
X10764Y6451D01*
X12707Y8393D01*
X12707Y8393D01*
X12707Y8393D01*
X12707Y8393D01*
X13411Y9098D01*
X14306Y9993D01*
G75*
D01*
G03X14351Y10100I-105J107*
G01*
X14351Y10100D01*
X14351Y12000D01*
G74*
D01*
G03X14306Y12107I151J1*
G01*
X14306Y12107D01*
X13807Y12606D01*
G74*
D01*
G03X13700Y12651I107J105*
G01*
X13700Y12651D01*
X11362Y12651D01*
X11007Y13006D01*
G74*
D01*
G03X10900Y13051I107J105*
G01*
X10900Y13051D01*
X8967Y13051D01*
G74*
D01*
G03X8932Y13100I265J152*
G01*
G75*
D01*
G03X8950Y13099I17J150*
G01*
X8950Y13099D01*
X11644Y13099D01*
X11644Y12955D01*
G75*
D01*
G03X11785Y12814I141J0*
G01*
X11785Y12814D01*
X12376Y12814D01*
G75*
D01*
G03X12516Y12955I-1J141*
G01*
X12516Y12955D01*
X12516Y13099D01*
X13250Y13099D01*
G74*
D01*
G03X13357Y13144I1J151*
G01*
X13357Y13144D01*
X13656Y13443D01*
G75*
D01*
G03X13701Y13550I-105J107*
G01*
X13701Y13550D01*
X13701Y13814D01*
X13845Y13814D01*
G75*
D01*
G03X13986Y13955I0J141*
G01*
X13986Y13955D01*
X13986Y14545D01*
G74*
D01*
G03X13845Y14686I141J0*
G01*
X13845Y14686D01*
X13255Y14686D01*
G75*
D01*
G03X13114Y14545I0J-141*
G01*
X13114Y14545D01*
X13114Y13955D01*
G75*
D01*
G03X13255Y13814I141J0*
G01*
X13255Y13814D01*
X13399Y13814D01*
X13399Y13612D01*
X13188Y13401D01*
X12516Y13401D01*
X12516Y13545D01*
G74*
D01*
G03X12376Y13686I140J1*
G01*
X12376Y13686D01*
X11785Y13686D01*
G75*
D01*
G03X11644Y13545I0J-141*
G01*
X11644Y13545D01*
X11644Y13401D01*
X9062Y13401D01*
G75*
D01*
G03X9063Y13414I-109J15*
G01*
X9063Y13414D01*
X9063Y14142D01*
G74*
D01*
G03X8952Y14253I111J0*
G01*
X8952Y14253D01*
X8866Y14253D01*
X9018Y14405D01*
G75*
D01*
G03X9414Y14421I182J394*
G01*
X9414Y14421D01*
X9414Y14005D01*
G75*
D01*
G03X9555Y13864I141J0*
G01*
X9555Y13864D01*
X10145Y13864D01*
G75*
D01*
G03X10286Y14005I0J141*
G01*
X10286Y14005D01*
X10286Y14595D01*
G74*
D01*
G03X10145Y14736I141J0*
G01*
X10145Y14736D01*
X10001Y14736D01*
X10001Y14788D01*
X10312Y15099D01*
X11692Y15099D01*
G75*
D01*
G03X11692Y15401I408J151*
G01*
X11692Y15401D01*
X10250Y15401D01*
G75*
D01*
G03X10143Y15357I0J-151*
G01*
X10143Y15357D01*
X9743Y14957D01*
G75*
D01*
G03X9699Y14850I107J-107*
G01*
X9699Y14850D01*
X9699Y14736D01*
X9631Y14736D01*
G75*
D01*
G03X8805Y14618I-430J63*
G01*
X8805Y14618D01*
X8501Y14314D01*
G74*
D01*
G03X8459Y14235I105J107*
G01*
G74*
D01*
G03X8408Y14142I59J93*
G01*
X8408Y14142D01*
X8408Y13414D01*
G75*
D01*
G03X8519Y13303I111J0*
G01*
X8519Y13303D01*
X8696Y13303D01*
G74*
D01*
G03X8716Y13305I1J111*
G01*
G74*
D01*
G03X8757Y13230I147J31*
G01*
X8757Y13230D01*
X8795Y13192D01*
G75*
D01*
G03X8967Y12749I-95J-292*
G01*
X8967Y12749D01*
X10838Y12749D01*
X11193Y12393D01*
G75*
D01*
G03X11300Y12349I107J107*
G01*
X11300Y12349D01*
X13638Y12349D01*
X14049Y11938D01*
X14049Y10162D01*
X12985Y9098D01*
X12985Y9098D01*
X12493Y8607D01*
X12493Y8607D01*
X12493Y8607D01*
X12493Y8607D01*
X10189Y6302D01*
G75*
D01*
G03X10145Y6195I106J-106*
G01*
X10145Y6195D01*
X10145Y6174D01*
G75*
D01*
G03X10036Y6204I-105J-169*
G01*
G75*
D01*
G03X10059Y6564I-235J196*
G01*
X10059Y6564D01*
X10295Y6564D01*
G75*
D01*
G03X10436Y6705I0J141*
G01*
X10436Y6705D01*
X10436Y7295D01*
G74*
D01*
G03X10295Y7436I141J0*
G01*
X10295Y7436D01*
X9705Y7436D01*
G75*
D01*
G03X9572Y7341I0J-141*
G01*
X9572Y7341D01*
X9307Y7606D01*
G74*
D01*
G03X9232Y7647I106J106*
G01*
G75*
D01*
G03X9200Y7651I-34J-146*
G01*
X9200Y7651D01*
X8500Y7651D01*
G75*
D01*
G03X8393Y7607I0J-151*
G01*
X8393Y7607D01*
X8142Y7355D01*
G75*
D01*
G03X8098Y7248I106J-106*
G01*
X8098Y7248D01*
X8098Y6135D01*
G74*
D01*
G03X8049Y6004I150J131*
G01*
X8049Y6004D01*
X8049Y5512D01*
G75*
D01*
G03X8059Y5451I199J1*
G01*
X8059Y5451D01*
X7786Y5451D01*
X7786Y5455D01*
X7786Y5455D01*
X7786Y6045D01*
G74*
D01*
G03X7645Y6186I141J0*
G01*
X7645Y6186D01*
X7055Y6186D01*
G75*
D01*
G03X7024Y6183I-2J-141*
G01*
X7024Y6183D01*
X7121Y6279D01*
G75*
D01*
G03X7171Y6400I-121J121*
G01*
X7171Y6400D01*
X7171Y6634D01*
X7245Y6634D01*
G75*
D01*
G03X7386Y6774I1J140*
G01*
X7386Y6774D01*
X7386Y7365D01*
G74*
D01*
G03X7245Y7506I141J0*
G01*
X7245Y7506D01*
X7242Y7506D01*
G75*
D01*
G03X7271Y7600I-141J95*
G01*
X7271Y7600D01*
X7271Y8129D01*
X7740Y8599D01*
G75*
D01*
G03X7791Y8720I-119J121*
G01*
X7791Y8720D01*
X7791Y9564D01*
X7915Y9564D01*
G75*
D01*
G03X8056Y9705I0J141*
G01*
X8056Y9705D01*
X8056Y10295D01*
G74*
D01*
G03X7967Y10426I141J0*
G01*
G75*
D01*
G03X8011Y10540I-126J114*
G01*
X8011Y10540D01*
X8011Y10584D01*
G75*
D01*
G03X8039Y10658I-83J74*
G01*
X8039Y10658D01*
X8039Y11386D01*
G74*
D01*
G03X7928Y11497I111J0*
G01*
X7928Y11497D01*
X7751Y11497D01*
G75*
D01*
G03X7712Y11490I0J-111*
G01*
G74*
D01*
G03X7672Y11497I39J104*
G01*
X7672Y11497D01*
X7495Y11497D01*
G75*
D01*
G03X7479Y11495I6J-111*
G01*
X7479Y11495D01*
X7479Y11551D01*
G75*
D01*
G03X7177Y11519I-179J248*
G01*
X7177Y11519D01*
X7177Y11495D01*
G74*
D01*
G03X7161Y11497I22J108*
G01*
X7161Y11497D01*
X6983Y11497D01*
G75*
D01*
G03X6873Y11386I1J-111*
G01*
X6873Y11386D01*
X6873Y10658D01*
G75*
D01*
G03X6888Y10602I110J-1*
G01*
X6888Y10602D01*
X6708Y10422D01*
G74*
D01*
G03X6687Y10427I111J421*
G01*
X6687Y10427D01*
X6607Y10506D01*
G74*
D01*
G03X6554Y10541I107J105*
G01*
G74*
D01*
G03X6532Y10547I50J141*
G01*
X6532Y10547D01*
X6649Y10547D01*
G75*
D01*
G03X6759Y10658I-1J111*
G01*
X6759Y10658D01*
X6759Y11386D01*
G74*
D01*
G03X6649Y11497I110J1*
G01*
X6649Y11497D01*
X6472Y11497D01*
G75*
D01*
G03X6455Y11495I4J-111*
G01*
X6455Y11495D01*
X6455Y11996D01*
G74*
D01*
G03X6411Y12102I151J1*
G01*
X6411Y12102D01*
X6213Y12300D01*
X6411Y12498D01*
G75*
D01*
G03X6455Y12604I-106J106*
G01*
X6455Y12604D01*
X6455Y12949D01*
X7100Y12949D01*
G75*
D01*
G03X7116Y12950I-1J151*
G01*
G74*
D01*
G03X7207Y12994I16J149*
G01*
X7207Y12994D01*
X7434Y13221D01*
G74*
D01*
G03X7477Y13305I105J107*
G01*
G75*
D01*
G03X7495Y13303I21J108*
G01*
X7495Y13303D01*
X7672Y13303D01*
G75*
D01*
G03X7783Y13414I0J111*
G01*
X7783Y13414D01*
X7783Y14142D01*
G74*
D01*
G03X7735Y14234I111J1*
G01*
X7735Y14234D01*
X7735Y14321D01*
X7818Y14405D01*
G75*
D01*
G03X8055Y14368I183J394*
G01*
X8055Y14368D01*
X7993Y14307D01*
G74*
D01*
G03X7955Y14239I108J105*
G01*
G74*
D01*
G03X7897Y14142I52J97*
G01*
X7897Y14142D01*
X7897Y13414D01*
G75*
D01*
G03X8007Y13303I110J-1*
G01*
X8007Y13303D01*
X8184Y13303D01*
G75*
D01*
G03X8295Y13414I0J111*
G01*
X8295Y13414D01*
X8295Y14142D01*
G74*
D01*
G03X8289Y14176I111J2*
G01*
X8289Y14176D01*
X8606Y14493D01*
G75*
D01*
G03X8651Y14600I-105J107*
G01*
X8651Y14600D01*
X8651Y15000D01*
G74*
D01*
G03X8606Y15107I151J1*
G01*
X8606Y15107D01*
X8007Y15706D01*
G74*
D01*
G03X7900Y15751I107J105*
G01*
X7900Y15751D01*
X6816Y15751D01*
X6816Y15876D01*
G74*
D01*
G03X6676Y16016I140J0*
G01*
X6676Y16016D01*
X6124Y16016D01*
G75*
D01*
G03X5984Y15876I0J-140*
G01*
X5984Y15876D01*
X5984Y15324D01*
G75*
D01*
G03X6124Y15184I140J0*
G01*
X6124Y15184D01*
X6676Y15184D01*
G75*
D01*
G03X6816Y15324I0J140*
G01*
X6816Y15324D01*
X6816Y15449D01*
X7838Y15449D01*
X8055Y15232D01*
G75*
D01*
G03X7605Y14618I-55J-431*
G01*
X7605Y14618D01*
X7477Y14490D01*
G75*
D01*
G03X7433Y14383I106J-106*
G01*
X7433Y14383D01*
X7433Y14251D01*
G74*
D01*
G03X7417Y14253I22J108*
G01*
X7417Y14253D01*
X7239Y14253D01*
G75*
D01*
G03X7223Y14251I6J-111*
G01*
X7223Y14251D01*
X7223Y14428D01*
G74*
D01*
G03X7178Y14535I151J1*
G01*
X7178Y14535D01*
X6607Y15106D01*
G74*
D01*
G03X6553Y15141I107J105*
G01*
G75*
D01*
G03X6500Y15151I-54J-140*
G01*
X6500Y15151D01*
X5362Y15151D01*
X4951Y15562D01*
X4951Y16019D01*
G75*
D01*
G03X4649Y16019I-151J430*
G01*
X4649Y16019D01*
X4649Y15500D01*
G75*
D01*
G03X4693Y15393I151J0*
G01*
X4693Y15393D01*
X5136Y14951D01*
X4362Y14951D01*
X3951Y15362D01*
X3951Y16019D01*
G75*
D01*
G03X3649Y16019I-151J430*
G01*
X3649Y16019D01*
X3649Y15300D01*
G75*
D01*
G03X3693Y15193I151J0*
G01*
X3693Y15193D01*
X4136Y14751D01*
X3362Y14751D01*
X2951Y15162D01*
X2951Y16019D01*
G75*
D01*
G03X2649Y16019I-151J430*
G01*
X2649Y16019D01*
X2649Y15100D01*
G75*
D01*
G03X2693Y14993I151J0*
G01*
X2693Y14993D01*
X3193Y14493D01*
G74*
D01*
G03X3256Y14456I106J108*
G01*
G75*
D01*
G03X3300Y14449I45J143*
G01*
X3300Y14449D01*
X6238Y14449D01*
X6410Y14277D01*
X6410Y14251D01*
G74*
D01*
G03X6393Y14253I21J108*
G01*
X6393Y14253D01*
X6216Y14253D01*
G75*
D01*
G03X6176Y14245I1J-111*
G01*
G74*
D01*
G03X6137Y14253I41J102*
G01*
X6137Y14253D01*
X5960Y14253D01*
G75*
D01*
G03X5920Y14245I1J-111*
G01*
G74*
D01*
G03X5881Y14253I41J102*
G01*
X5881Y14253D01*
X5704Y14253D01*
G75*
D01*
G03X5665Y14245I2J-111*
G01*
G74*
D01*
G03X5625Y14253I41J102*
G01*
X5625Y14253D01*
X5448Y14253D01*
G75*
D01*
G03X5337Y14142I0J-111*
G01*
X5337Y14142D01*
X5337Y13451D01*
X4088Y13451D01*
G75*
D01*
G03X3580Y13663I-360J-148*
G01*
X3580Y13663D01*
X3167Y14076D01*
G74*
D01*
G03X3060Y14120I106J106*
G01*
X3060Y14120D01*
X2536Y14120D01*
G75*
D01*
G03X1945Y14365I-408J-148*
G01*
X1945Y14365D01*
X1341Y14969D01*
G75*
D01*
G03X1153Y14731I-413J133*
G01*
X1153Y14731D01*
X1732Y14152D01*
G75*
D01*
G03X2536Y13819I402J-167*
G01*
X2536Y13819D01*
X2998Y13819D01*
X3367Y13450D01*
G75*
D01*
G03X4086Y13149I365J-137*
G01*
X4086Y13149D01*
X5497Y13149D01*
G75*
D01*
G03X6030Y13303I302J-47*
G01*
X6030Y13303D01*
X6137Y13303D01*
G74*
D01*
G03X6154Y13305I4J111*
G01*
X6154Y13305D01*
X6154Y12667D01*
X5938Y12451D01*
X1300Y12451D01*
G75*
D01*
G03X1193Y12407I0J-151*
G01*
X1193Y12407D01*
X293Y11507D01*
G75*
D01*
G03X249Y11400I107J-107*
G01*
X249Y11400D01*
X249Y9236D01*
X151Y9236D01*
X151Y16479D01*
G74*
D01*
G03X151Y16482I151J2*
G01*
G74*
D01*
G02X718Y17049I570J3*
G01*
G75*
D01*
G03X721Y17049I2J151*
G01*
X721Y17049D01*
X15279Y17049D01*
G74*
D01*
G03X15282Y17049I2J151*
G01*
G74*
D01*
G02X15620Y16936I3J570*
G01*
X15620Y16936D01*
X15105Y16936D01*
G75*
D01*
G03X14964Y16795I0J-141*
G01*
X14964Y16795D01*
X14964Y16205D01*
G75*
D01*
G03X15105Y16064I141J0*
G01*
X15105Y16064D01*
X15249Y16064D01*
X15249Y15562D01*
X14821Y15135D01*
G75*
D01*
G03X14777Y15028I107J-107*
G01*
X14777Y15028D01*
X14777Y14658D01*
G75*
D01*
G03X14777Y13842I151J-408*
G01*
X14777Y13842D01*
X14777Y11572D01*
G75*
D01*
G03X14821Y11465I151J0*
G01*
X14821Y11465D01*
X15649Y10638D01*
X15649Y3562D01*
X15257Y3170D01*
X14227Y3170D01*
G75*
D01*
G03X14227Y2869I-407J-150*
G01*
X14227Y2869D01*
X15319Y2869D01*
G75*
D01*
G03X15368Y2877I1J151*
G01*
G74*
D01*
G03X15426Y2913I48J142*
G01*
X15426Y2913D01*
X15849Y3336D01*
X15849Y521D01*
G75*
D01*
G03X15849Y518I151J-1*
G01*
G74*
D01*
G02X15282Y-49I570J3*
G01*
G74*
D01*
G03X15279Y-49I1J151*
G01*
X15279Y-49D01*
X9564Y-49D01*
X9962Y349D01*
X10312Y349D01*
G75*
D01*
G03X10646Y58I334J46*
G01*
X10646Y58D01*
X10854Y58D01*
G75*
D01*
G03X11192Y396I0J338*
G01*
X11192Y396D01*
X11192Y604D01*
G74*
D01*
G03X10854Y942I338J0*
G01*
X10854Y942D01*
X10646Y942D01*
G75*
D01*
G03X10312Y651I1J-338*
G01*
X10312Y651D01*
X9900Y651D01*
G75*
D01*
G03X9856Y644I1J-151*
G01*
G74*
D01*
G03X9793Y607I42J144*
G01*
X9793Y607D01*
X9338Y151D01*
X9336Y151D01*
G74*
D01*
G03X9442Y396I231J245*
G01*
X9442Y396D01*
X9442Y604D01*
D02*
G37*
%LPC*%
G36*
X11818Y9255D02*
G75*
D01*
G03X11605Y9468I181J394*
G01*
X11605Y9468D01*
X11488Y9351D01*
X11386Y9351D01*
X11386Y9495D01*
G74*
D01*
G03X11245Y9636I141J0*
G01*
X11245Y9636D01*
X10655Y9636D01*
G75*
D01*
G03X10514Y9495I0J-141*
G01*
X10514Y9495D01*
X10514Y8905D01*
G75*
D01*
G03X10655Y8764I141J0*
G01*
X10655Y8764D01*
X11245Y8764D01*
G75*
D01*
G03X11386Y8905I0J141*
G01*
X11386Y8905D01*
X11386Y9049D01*
X11550Y9049D01*
G74*
D01*
G03X11657Y9094I1J151*
G01*
X11657Y9094D01*
X11818Y9255D01*
D02*
G37*
G36*
X8950Y11801D02*
G75*
D01*
G03X8912Y11796I1J-151*
G01*
G74*
D01*
G03X8843Y11757I37J145*
G01*
X8843Y11757D01*
X8757Y11670D01*
G75*
D01*
G03X8713Y11563I106J-106*
G01*
X8713Y11563D01*
X8713Y11495D01*
G74*
D01*
G03X8696Y11497I21J108*
G01*
X8696Y11497D01*
X8519Y11497D01*
G75*
D01*
G03X8408Y11386I0J-111*
G01*
X8408Y11386D01*
X8408Y10658D01*
G75*
D01*
G03X8449Y10572I111J0*
G01*
X8449Y10572D01*
X8449Y10500D01*
G75*
D01*
G03X8464Y10436I151J2*
G01*
X8464Y10436D01*
X8446Y10436D01*
G75*
D01*
G03X8305Y10295I0J-141*
G01*
X8305Y10295D01*
X8305Y9705D01*
G75*
D01*
G03X8446Y9564I141J0*
G01*
X8446Y9564D01*
X9036Y9564D01*
G75*
D01*
G03X9177Y9705I0J141*
G01*
X9177Y9705D01*
X9177Y10295D01*
G74*
D01*
G03X9036Y10436I141J0*
G01*
X9036Y10436D01*
X8871Y10436D01*
G74*
D01*
G03X8847Y10466I129J79*
G01*
X8847Y10466D01*
X8765Y10548D01*
G75*
D01*
G03X8775Y10547I16J109*
G01*
X8775Y10547D01*
X8952Y10547D01*
G75*
D01*
G03X9063Y10658I0J111*
G01*
X9063Y10658D01*
X9063Y11386D01*
G74*
D01*
G03X9014Y11478I111J0*
G01*
X9014Y11478D01*
X9014Y11499D01*
X11584Y11499D01*
X11584Y11355D01*
G75*
D01*
G03X11724Y11214I140J-1*
G01*
X11724Y11214D01*
X12315Y11214D01*
G75*
D01*
G03X12456Y11355I0J141*
G01*
X12456Y11355D01*
X12456Y11499D01*
X13088Y11499D01*
X13399Y11188D01*
X13399Y11086D01*
X13255Y11086D01*
G75*
D01*
G03X13114Y10945I0J-141*
G01*
X13114Y10945D01*
X13114Y10355D01*
G75*
D01*
G03X13255Y10214I141J0*
G01*
X13255Y10214D01*
X13845Y10214D01*
G75*
D01*
G03X13986Y10355I0J141*
G01*
X13986Y10355D01*
X13986Y10945D01*
G74*
D01*
G03X13845Y11086I141J0*
G01*
X13845Y11086D01*
X13701Y11086D01*
X13701Y11250D01*
G74*
D01*
G03X13656Y11357I151J1*
G01*
X13656Y11357D01*
X13257Y11756D01*
G74*
D01*
G03X13150Y11801I107J105*
G01*
X13150Y11801D01*
X12456Y11801D01*
X12456Y11945D01*
G74*
D01*
G03X12315Y12086I141J0*
G01*
X12315Y12086D01*
X11724Y12086D01*
G75*
D01*
G03X11584Y11945I1J-141*
G01*
X11584Y11945D01*
X11584Y11801D01*
X8950Y11801D01*
D02*
G37*
%LPD*%
G36*
X5139Y7597D02*
X5139Y7597D01*
X7194Y9652D01*
G75*
D01*
G03X7324Y9564I130J52*
G01*
X7324Y9564D01*
X7449Y9564D01*
X7449Y8790D01*
X6979Y8321D01*
G75*
D01*
G03X6929Y8199I121J-121*
G01*
X6929Y8199D01*
X6929Y7671D01*
X6829Y7571D01*
G74*
D01*
G03X6788Y7506I120J121*
G01*
X6788Y7506D01*
X6655Y7506D01*
G75*
D01*
G03X6514Y7365I0J-141*
G01*
X6514Y7365D01*
X6514Y6774D01*
G75*
D01*
G03X6655Y6634I141J1*
G01*
X6655Y6634D01*
X6829Y6634D01*
X6829Y6471D01*
X6679Y6321D01*
G75*
D01*
G03X6629Y6200I121J-121*
G01*
X6629Y6200D01*
X6629Y4216D01*
X6524Y4216D01*
G75*
D01*
G03X6384Y4076I0J-140*
G01*
X6384Y4076D01*
X6384Y3524D01*
G75*
D01*
G03X6524Y3384I140J0*
G01*
X6524Y3384D01*
X6629Y3384D01*
X6629Y3371D01*
X900Y3371D01*
G75*
D01*
G03X880Y3370I-1J-171*
G01*
G74*
D01*
G03X779Y3321I20J170*
G01*
X779Y3321D01*
X607Y3148D01*
G75*
D01*
G03X557Y3027I120J-120*
G01*
X557Y3027D01*
X557Y3021D01*
X432Y3021D01*
G75*
D01*
G03X292Y2881I0J-140*
G01*
X292Y2881D01*
X292Y2290D01*
G75*
D01*
G03X432Y2149I140J-1*
G01*
X432Y2149D01*
X1023Y2149D01*
G75*
D01*
G03X1164Y2290I0J141*
G01*
X1164Y2290D01*
X1164Y2295D01*
X1480Y1978D01*
X1480Y1446D01*
G75*
D01*
G03X1532Y1343I129J0*
G01*
G74*
D01*
G03X1567Y1291I156J67*
G01*
X1567Y1291D01*
X1679Y1179D01*
G75*
D01*
G03X1800Y1129I121J121*
G01*
X1800Y1129D01*
X4029Y1129D01*
X4229Y929D01*
X4229Y200D01*
G75*
D01*
G03X4279Y79I171J0*
G01*
X4279Y79D01*
X4408Y-49D01*
X721Y-49D01*
G75*
D01*
G03X718Y-49I-1J-151*
G01*
G74*
D01*
G02X151Y518I3J570*
G01*
G75*
D01*
G03X151Y521I-151J2*
G01*
X151Y521D01*
X151Y8364D01*
X695Y8364D01*
G75*
D01*
G03X836Y8505I0J141*
G01*
X836Y8505D01*
X836Y8649D01*
X1038Y8649D01*
X1149Y8538D01*
X1149Y7811D01*
G75*
D01*
G03X577Y7295I-420J-110*
G01*
X577Y7295D01*
X577Y6773D01*
G75*
D01*
G03X621Y6666I151J0*
G01*
X621Y6666D01*
X993Y6293D01*
G75*
D01*
G03X1100Y6249I107J107*
G01*
X1100Y6249D01*
X4969Y6249D01*
G75*
D01*
G03X4969Y6551I430J151*
G01*
X4969Y6551D01*
X1162Y6551D01*
X878Y6835D01*
X878Y7295D01*
G74*
D01*
G03X1149Y7596I150J407*
G01*
X1149Y7596D01*
X1149Y7300D01*
G75*
D01*
G03X1193Y7193I151J0*
G01*
X1193Y7193D01*
X1393Y6993D01*
G74*
D01*
G03X1478Y6951I106J108*
G01*
G75*
D01*
G03X1500Y6949I25J148*
G01*
X1500Y6949D01*
X2600Y6949D01*
G75*
D01*
G03X2666Y6964I0J151*
G01*
G74*
D01*
G03X2707Y6994I67J135*
G01*
X2707Y6994D01*
X3000Y7287D01*
G75*
D01*
G03X2759Y7472I128J416*
G01*
X2759Y7472D01*
X2538Y7251D01*
X1562Y7251D01*
X1451Y7362D01*
X1451Y8600D01*
G74*
D01*
G03X1406Y8707I151J1*
G01*
X1406Y8707D01*
X1207Y8906D01*
G74*
D01*
G03X1150Y8942I107J106*
G01*
G75*
D01*
G03X1100Y8951I-51J-141*
G01*
X1100Y8951D01*
X836Y8951D01*
X836Y9095D01*
G74*
D01*
G03X695Y9236I141J0*
G01*
X695Y9236D01*
X551Y9236D01*
X551Y9575D01*
G75*
D01*
G03X632Y9549I81J114*
G01*
X632Y9549D01*
X1223Y9549D01*
G75*
D01*
G03X1364Y9690I0J141*
G01*
X1364Y9690D01*
X1364Y9844D01*
G74*
D01*
G03X1419Y9879I51J141*
G01*
X1419Y9879D01*
X1945Y10406D01*
G75*
D01*
G03X2536Y10650I183J395*
G01*
X2536Y10650D01*
X3143Y10650D01*
G74*
D01*
G03X3250Y10695I1J151*
G01*
X3250Y10695D01*
X3580Y11024D01*
G75*
D01*
G03X4093Y11249I147J361*
G01*
X4093Y11249D01*
X4300Y11249D01*
G75*
D01*
G03X4354Y11259I0J151*
G01*
G74*
D01*
G03X4407Y11294I54J140*
G01*
X4407Y11294D01*
X4462Y11349D01*
X4921Y11349D01*
G75*
D01*
G03X4909Y10860I178J-249*
G01*
X4909Y10860D01*
X4909Y10679D01*
X4621Y10391D01*
X2900Y10391D01*
G75*
D01*
G03X2874Y10389I2J-191*
G01*
G74*
D01*
G03X2765Y10335I25J188*
G01*
X2765Y10335D01*
X1765Y9335D01*
G75*
D01*
G03X1709Y9200I134J-135*
G01*
X1709Y9200D01*
X1709Y8080D01*
G75*
D01*
G03X2091Y8107I219J-376*
G01*
X2091Y8107D01*
X2091Y9121D01*
X2979Y10009D01*
X4700Y10009D01*
G75*
D01*
G03X4749Y10015I1J191*
G01*
G74*
D01*
G03X4835Y10065I50J184*
G01*
X4835Y10065D01*
X5235Y10465D01*
G75*
D01*
G03X5291Y10600I-134J135*
G01*
X5291Y10600D01*
X5291Y10860D01*
G74*
D01*
G03X5337Y10906I192J238*
G01*
X5337Y10906D01*
X5337Y10658D01*
G75*
D01*
G03X5448Y10547I111J0*
G01*
X5448Y10547D01*
X5625Y10547D01*
G74*
D01*
G03X5665Y10555I1J111*
G01*
G75*
D01*
G03X5704Y10547I41J102*
G01*
X5704Y10547D01*
X5881Y10547D01*
G74*
D01*
G03X5898Y10549I4J111*
G01*
X5898Y10549D01*
X5898Y10411D01*
X5412Y9925D01*
G75*
D01*
G03X5367Y9818I105J-107*
G01*
X5367Y9818D01*
X5367Y9208D01*
G75*
D01*
G03X5482Y8366I150J-408*
G01*
X5482Y8366D01*
X4970Y7854D01*
X4736Y7854D01*
G75*
D01*
G03X4736Y7553I-408J-150*
G01*
X4736Y7553D01*
X5033Y7553D01*
G74*
D01*
G03X5139Y7597I0J150*
G01*
D02*
G37*
G36*
X3564Y2881D02*
X3564Y2881D01*
X3564Y2736D01*
X3892Y2736D01*
X3892Y2881D01*
G75*
D01*
G02X4032Y3021I140J0*
G01*
X4032Y3021D01*
X4623Y3021D01*
G74*
D01*
G02X4764Y2881I1J140*
G01*
X4764Y2881D01*
X4764Y2290D01*
G75*
D01*
G02X4623Y2149I-141J0*
G01*
X4623Y2149D01*
X4032Y2149D01*
G75*
D01*
G02X3892Y2290I1J141*
G01*
X3892Y2290D01*
X3892Y2435D01*
X3564Y2435D01*
X3564Y2290D01*
G75*
D01*
G02X3423Y2149I-141J0*
G01*
X3423Y2149D01*
X2832Y2149D01*
G75*
D01*
G02X2692Y2279I1J141*
G01*
X2692Y2279D01*
X2540Y2127D01*
G74*
D01*
G02X2664Y1998I5J129*
G01*
X2664Y1998D01*
X2664Y1471D01*
X4100Y1471D01*
G74*
D01*
G02X4221Y1421I0J171*
G01*
X4221Y1421D01*
X4521Y1121D01*
G74*
D01*
G02X4571Y1000I121J121*
G01*
X4571Y1000D01*
X4571Y271D01*
X4671Y171D01*
X4844Y171D01*
G75*
D01*
G02X4758Y396I251J225*
G01*
X4758Y396D01*
X4758Y604D01*
G74*
D01*
G02X5054Y939I338J0*
G01*
G74*
D01*
G02X5093Y1007I146J39*
G01*
X5093Y1007D01*
X6777Y2690D01*
G75*
D01*
G02X6722Y3031I222J211*
G01*
G74*
D01*
G02X6700Y3029I26J168*
G01*
X6700Y3029D01*
X971Y3029D01*
X963Y3021D01*
X1023Y3021D01*
G74*
D01*
G02X1164Y2881I1J140*
G01*
X1164Y2881D01*
X1164Y2749D01*
G74*
D01*
G02X1236Y2706I49J164*
G01*
X1236Y2706D01*
X1492Y2450D01*
X1492Y2881D01*
G75*
D01*
G02X1632Y3021I140J0*
G01*
X1632Y3021D01*
X2223Y3021D01*
G74*
D01*
G02X2364Y2881I1J140*
G01*
X2364Y2881D01*
X2364Y2377D01*
X2679Y2692D01*
G74*
D01*
G02X2692Y2703I103J109*
G01*
X2692Y2703D01*
X2692Y2881D01*
G75*
D01*
G02X2832Y3021I140J0*
G01*
X2832Y3021D01*
X3423Y3021D01*
G74*
D01*
G02X3564Y2881I1J140*
G01*
D02*
G37*
G36*
X3367Y11238D02*
G75*
D01*
G02X4081Y11551I357J156*
G01*
X4081Y11551D01*
X4238Y11551D01*
X4293Y11607D01*
G74*
D01*
G02X4388Y11650I106J108*
G01*
G75*
D01*
G02X4400Y11651I18J-149*
G01*
X4400Y11651D01*
X5500Y11651D01*
X5507Y11651D01*
G74*
D01*
G02X5607Y11606I8J151*
G01*
X5607Y11606D01*
X5643Y11570D01*
G74*
D01*
G02X5684Y11495I106J106*
G01*
G75*
D01*
G02X5704Y11497I21J-108*
G01*
X5704Y11497D01*
X5881Y11497D01*
G74*
D01*
G02X5920Y11490I0J111*
G01*
G75*
D01*
G02X5960Y11497I39J-104*
G01*
X5960Y11497D01*
X6137Y11497D01*
G74*
D01*
G02X6154Y11495I4J111*
G01*
X6154Y11495D01*
X6154Y11933D01*
X5938Y12149D01*
X1362Y12149D01*
X551Y11338D01*
X551Y10395D01*
G75*
D01*
G02X632Y10421I81J-113*
G01*
X632Y10421D01*
X1223Y10421D01*
G74*
D01*
G02X1364Y10281I1J140*
G01*
X1364Y10281D01*
X1364Y10250D01*
X1732Y10619D01*
G75*
D01*
G02X2536Y10952I402J166*
G01*
X2536Y10952D01*
X3081Y10952D01*
X3367Y11238D01*
D02*
G37*
G36*
X10000Y5129D02*
X10000Y5129D01*
X8900Y5129D01*
G75*
D01*
G02X8838Y5141I1J171*
G01*
G74*
D01*
G02X8779Y5179I61J159*
G01*
X8779Y5179D01*
X8639Y5319D01*
G74*
D01*
G02X8633Y5326I127J115*
G01*
G74*
D01*
G02X8611Y5298I128J78*
G01*
X8611Y5298D01*
X8507Y5194D01*
G74*
D01*
G02X8400Y5149I107J105*
G01*
X8400Y5149D01*
X7400Y5149D01*
G75*
D01*
G02X7359Y5155I1J151*
G01*
G74*
D01*
G02X7293Y5193I39J145*
G01*
X7293Y5193D01*
X7243Y5243D01*
G74*
D01*
G02X7204Y5314I108J106*
G01*
X7204Y5314D01*
X7055Y5314D01*
G75*
D01*
G02X6971Y5342I0J141*
G01*
X6971Y5342D01*
X6971Y4216D01*
X7076Y4216D01*
G74*
D01*
G02X7216Y4076I0J140*
G01*
X7216Y4076D01*
X7216Y3524D01*
G75*
D01*
G02X7076Y3384I-140J0*
G01*
X7076Y3384D01*
X6971Y3384D01*
X6971Y3300D01*
G75*
D01*
G02X6939Y3201I-171J1*
G01*
G75*
D01*
G02X7300Y2964I61J-301*
G01*
G75*
D01*
G02X7793Y3139I300J-62*
G01*
X7793Y3139D01*
X7793Y3288D01*
G74*
D01*
G02X7822Y3391I200J1*
G01*
X7822Y3391D01*
X7822Y3392D01*
G75*
D01*
G02X7872Y3513I171J0*
G01*
X7872Y3513D01*
X7979Y3621D01*
G75*
D01*
G02X8100Y3671I121J-121*
G01*
X8100Y3671D01*
X8800Y3671D01*
X8800Y3671D01*
X8800Y3671D01*
X10000Y3671D01*
X10000Y3671D01*
X10000Y3671D01*
X10729Y3671D01*
X10829Y3771D01*
X10829Y5029D01*
X10729Y5129D01*
X10000Y5129D01*
X10000Y5129D01*
D02*
G37*
G36*
X15836Y16601D02*
X15836Y16601D01*
X15836Y16205D01*
G75*
D01*
G02X15695Y16064I-141J0*
G01*
X15695Y16064D01*
X15551Y16064D01*
X15551Y15500D01*
G75*
D01*
G02X15506Y15393I-151J1*
G01*
X15506Y15393D01*
X15079Y14966D01*
X15079Y14658D01*
G75*
D01*
G02X15079Y13842I-151J-408*
G01*
X15079Y13842D01*
X15079Y11634D01*
X15849Y10864D01*
X15849Y16479D01*
G74*
D01*
G02X15849Y16482I151J2*
G01*
G74*
D01*
G03X15836Y16601I570J2*
G01*
D02*
G37*
G36*
X9589Y3329D02*
X9589Y3329D01*
X9211Y3329D01*
G74*
D01*
G02X9216Y3288I194J44*
G01*
X9216Y3288D01*
X9216Y2796D01*
G75*
D01*
G02X9151Y2648I-200J0*
G01*
X9151Y2648D01*
X9151Y1500D01*
G75*
D01*
G02X9106Y1393I-151J1*
G01*
X9106Y1393D01*
X8411Y698D01*
G75*
D01*
G02X8294Y151I-411J-198*
G01*
X8294Y151D01*
X8664Y151D01*
G75*
D01*
G02X8558Y396I231J245*
G01*
X8558Y396D01*
X8558Y604D01*
G74*
D01*
G02X8854Y939I338J0*
G01*
G74*
D01*
G02X8893Y1007I146J39*
G01*
X8893Y1007D01*
X9298Y1411D01*
X9298Y1411D01*
X9349Y1462D01*
X9349Y1900D01*
G75*
D01*
G02X9393Y2007I151J0*
G01*
X9393Y2007D01*
X9633Y2246D01*
X9633Y2665D01*
G75*
D01*
G02X9584Y2796I150J131*
G01*
X9584Y2796D01*
X9584Y3288D01*
G74*
D01*
G02X9589Y3329I200J4*
G01*
D02*
G37*
G36*
X8764Y6204D02*
G75*
D01*
G02X9167Y6142I236J195*
G01*
X9167Y6142D01*
X9167Y6135D01*
G74*
D01*
G02X9216Y6004I150J131*
G01*
X9216Y6004D01*
X9216Y5512D01*
G75*
D01*
G02X9211Y5471I-200J4*
G01*
X9211Y5471D01*
X9589Y5471D01*
G75*
D01*
G02X9584Y5512I194J44*
G01*
X9584Y5512D01*
X9584Y6004D01*
G74*
D01*
G02X9633Y6135I200J0*
G01*
X9633Y6135D01*
X9633Y6142D01*
G75*
D01*
G02X9590Y6624I167J258*
G01*
G75*
D01*
G02X9564Y6705I114J81*
G01*
X9564Y6705D01*
X9564Y6923D01*
X9298Y7189D01*
X9138Y7349D01*
X8562Y7349D01*
X8399Y7186D01*
X8399Y6174D01*
G75*
D01*
G02X8632Y6157I105J-169*
G01*
G75*
D01*
G02X8764Y6204I128J-152*
G01*
D02*
G37*
G36*
X7399Y750D02*
X7399Y758D01*
X7399Y758D01*
X6592Y-49D01*
X7636Y-49D01*
X7443Y143D01*
G75*
D01*
G02X7399Y250I107J107*
G01*
X7399Y250D01*
X7399Y750D01*
D02*
G37*
G54D11*
X11818Y9255D02*
G75*
D01*
G03X11605Y9468I181J394*
G01*
X11488Y9351D01*
X11386Y9351D01*
X11386Y9495D01*
G74*
D01*
G03X11245Y9636I141J0*
G01*
X10655Y9636D01*
G75*
D01*
G03X10514Y9495I0J-141*
G01*
X10514Y8905D01*
G75*
D01*
G03X10655Y8764I141J0*
G01*
X11245Y8764D01*
G75*
D01*
G03X11386Y8905I0J141*
G01*
X11386Y9049D01*
X11550Y9049D01*
G74*
D01*
G03X11657Y9094I1J151*
G01*
X11818Y9255D01*
X8950Y11801D02*
G75*
D01*
G03X8912Y11796I1J-151*
G01*
G74*
D01*
G03X8843Y11757I37J145*
G01*
X8757Y11670D01*
G75*
D01*
G03X8713Y11563I106J-106*
G01*
X8713Y11495D01*
G74*
D01*
G03X8696Y11497I21J108*
G01*
X8519Y11497D01*
G75*
D01*
G03X8408Y11386I0J-111*
G01*
X8408Y10658D01*
G75*
D01*
G03X8449Y10572I111J0*
G01*
X8449Y10500D01*
G75*
D01*
G03X8464Y10436I151J2*
G01*
X8446Y10436D01*
G75*
D01*
G03X8305Y10295I0J-141*
G01*
X8305Y9705D01*
G75*
D01*
G03X8446Y9564I141J0*
G01*
X9036Y9564D01*
G75*
D01*
G03X9177Y9705I0J141*
G01*
X9177Y10295D01*
G74*
D01*
G03X9036Y10436I141J0*
G01*
X8871Y10436D01*
G74*
D01*
G03X8847Y10466I129J79*
G01*
X8765Y10548D01*
G75*
D01*
G03X8775Y10547I16J109*
G01*
X8952Y10547D01*
G75*
D01*
G03X9063Y10658I0J111*
G01*
X9063Y11386D01*
G74*
D01*
G03X9014Y11478I111J0*
G01*
X9014Y11499D01*
X11584Y11499D01*
X11584Y11355D01*
G75*
D01*
G03X11724Y11214I140J-1*
G01*
X12315Y11214D01*
G75*
D01*
G03X12456Y11355I0J141*
G01*
X12456Y11499D01*
X13088Y11499D01*
X13399Y11188D01*
X13399Y11086D01*
X13255Y11086D01*
G75*
D01*
G03X13114Y10945I0J-141*
G01*
X13114Y10355D01*
G75*
D01*
G03X13255Y10214I141J0*
G01*
X13845Y10214D01*
G75*
D01*
G03X13986Y10355I0J141*
G01*
X13986Y10945D01*
G74*
D01*
G03X13845Y11086I141J0*
G01*
X13701Y11086D01*
X13701Y11250D01*
G74*
D01*
G03X13656Y11357I151J1*
G01*
X13257Y11756D01*
G74*
D01*
G03X13150Y11801I107J105*
G01*
X12456Y11801D01*
X12456Y11945D01*
G74*
D01*
G03X12315Y12086I141J0*
G01*
X11724Y12086D01*
G75*
D01*
G03X11584Y11945I1J-141*
G01*
X11584Y11801D01*
X8950Y11801D01*
X9442Y604D02*
G74*
D01*
G03X9230Y917I338J1*
G01*
X9298Y985D01*
X9298Y985D01*
X9606Y1293D01*
G75*
D01*
G03X9651Y1400I-105J107*
G01*
X9651Y1838D01*
X9890Y2077D01*
G75*
D01*
G03X9935Y2184I-105J107*
G01*
X9935Y2524D01*
X11549Y910D01*
G75*
D01*
G03X11921Y924I202J-409*
G01*
X11921Y950D01*
G74*
D01*
G03X11871Y1071I171J0*
G01*
X11792Y1149D01*
X12500Y1149D01*
G74*
D01*
G03X12607Y1194I1J151*
G01*
X12906Y1493D01*
G75*
D01*
G03X12951Y1600I-105J107*
G01*
X12951Y3438D01*
X13112Y3599D01*
X14542Y3599D01*
G75*
D01*
G03X14542Y3901I408J151*
G01*
X13937Y3901D01*
G75*
D01*
G03X14214Y4502I-118J419*
G01*
X14706Y4994D01*
G75*
D01*
G03X14751Y5101I-105J107*
G01*
X14751Y7238D01*
X15206Y7693D01*
G74*
D01*
G03X15246Y7764I106J106*
G01*
X15395Y7764D01*
G75*
D01*
G03X15536Y7905I0J141*
G01*
X15536Y8495D01*
G74*
D01*
G03X15395Y8636I141J0*
G01*
X15251Y8636D01*
X15251Y8900D01*
G74*
D01*
G03X15206Y9007I151J1*
G01*
X15115Y9098D01*
X15079Y9134D01*
X15079Y10242D01*
G75*
D01*
G03X14777Y10242I-151J408*
G01*
X14777Y9072D01*
G75*
D01*
G03X14821Y8965I151J0*
G01*
X14949Y8838D01*
X14949Y8636D01*
X14805Y8636D01*
G75*
D01*
G03X14664Y8495I0J-141*
G01*
X14664Y7905D01*
G75*
D01*
G03X14805Y7764I141J0*
G01*
X14851Y7764D01*
X14493Y7407D01*
G75*
D01*
G03X14449Y7300I107J-107*
G01*
X14449Y5164D01*
X14001Y4715D01*
G75*
D01*
G03X13700Y3901I-158J-404*
G01*
X13050Y3901D01*
G75*
D01*
G03X12943Y3857I0J-151*
G01*
X12693Y3607D01*
G75*
D01*
G03X12649Y3500I107J-107*
G01*
X12649Y1662D01*
X12438Y1451D01*
X12116Y1451D01*
G75*
D01*
G03X11478Y2035I-287J327*
G01*
X10896Y2617D01*
G75*
D01*
G03X11007Y2796I-88J178*
G01*
X11007Y2891D01*
X11414Y2891D01*
X11414Y2724D01*
G75*
D01*
G03X11555Y2584I141J1*
G01*
X12145Y2584D01*
G75*
D01*
G03X12286Y2724I1J140*
G01*
X12286Y3315D01*
G74*
D01*
G03X12145Y3456I141J0*
G01*
X11555Y3456D01*
G75*
D01*
G03X11414Y3315I0J-141*
G01*
X11414Y3192D01*
X11007Y3192D01*
X11007Y3288D01*
G74*
D01*
G03X10959Y3418I200J0*
G01*
X11121Y3579D01*
G75*
D01*
G03X11171Y3700I-121J121*
G01*
X11171Y5100D01*
G74*
D01*
G03X11121Y5221I171J0*
G01*
X10959Y5382D01*
G75*
D01*
G03X11007Y5512I-152J130*
G01*
X11007Y5580D01*
X11149Y5438D01*
X11149Y5300D01*
G75*
D01*
G03X11193Y5193I151J0*
G01*
X11631Y4756D01*
X11555Y4756D01*
G75*
D01*
G03X11414Y4615I0J-141*
G01*
X11414Y4024D01*
G75*
D01*
G03X11555Y3884I141J1*
G01*
X12145Y3884D01*
G75*
D01*
G03X12286Y4024I1J140*
G01*
X12286Y4615D01*
G74*
D01*
G03X12145Y4756I141J0*
G01*
X12001Y4756D01*
G74*
D01*
G03X11956Y4857I151J7*
G01*
X11629Y5184D01*
X12145Y5184D01*
G75*
D01*
G03X12286Y5324I1J140*
G01*
X12286Y5915D01*
G74*
D01*
G03X12145Y6056I141J0*
G01*
X11951Y6056D01*
X11951Y6100D01*
G74*
D01*
G03X11906Y6207I151J1*
G01*
X11707Y6406D01*
G74*
D01*
G03X11650Y6442I107J106*
G01*
G75*
D01*
G03X11600Y6451I-51J-141*
G01*
X10764Y6451D01*
X12707Y8393D01*
X12707Y8393D01*
X13411Y9098D01*
X14306Y9993D01*
G75*
D01*
G03X14351Y10100I-105J107*
G01*
X14351Y12000D01*
G74*
D01*
G03X14306Y12107I151J1*
G01*
X13807Y12606D01*
G74*
D01*
G03X13700Y12651I107J105*
G01*
X11362Y12651D01*
X11007Y13006D01*
G74*
D01*
G03X10900Y13051I107J105*
G01*
X8967Y13051D01*
G74*
D01*
G03X8932Y13100I265J152*
G01*
G75*
D01*
G03X8950Y13099I17J150*
G01*
X11644Y13099D01*
X11644Y12955D01*
G75*
D01*
G03X11785Y12814I141J0*
G01*
X12376Y12814D01*
G75*
D01*
G03X12516Y12955I-1J141*
G01*
X12516Y13099D01*
X13250Y13099D01*
G74*
D01*
G03X13357Y13144I1J151*
G01*
X13656Y13443D01*
G75*
D01*
G03X13701Y13550I-105J107*
G01*
X13701Y13814D01*
X13845Y13814D01*
G75*
D01*
G03X13986Y13955I0J141*
G01*
X13986Y14545D01*
G74*
D01*
G03X13845Y14686I141J0*
G01*
X13255Y14686D01*
G75*
D01*
G03X13114Y14545I0J-141*
G01*
X13114Y13955D01*
G75*
D01*
G03X13255Y13814I141J0*
G01*
X13399Y13814D01*
X13399Y13612D01*
X13188Y13401D01*
X12516Y13401D01*
X12516Y13545D01*
G74*
D01*
G03X12376Y13686I140J1*
G01*
X11785Y13686D01*
G75*
D01*
G03X11644Y13545I0J-141*
G01*
X11644Y13401D01*
X9062Y13401D01*
G75*
D01*
G03X9063Y13414I-109J15*
G01*
X9063Y14142D01*
G74*
D01*
G03X8952Y14253I111J0*
G01*
X8866Y14253D01*
X9018Y14405D01*
G75*
D01*
G03X9414Y14421I182J394*
G01*
X9414Y14005D01*
G75*
D01*
G03X9555Y13864I141J0*
G01*
X10145Y13864D01*
G75*
D01*
G03X10286Y14005I0J141*
G01*
X10286Y14595D01*
G74*
D01*
G03X10145Y14736I141J0*
G01*
X10001Y14736D01*
X10001Y14788D01*
X10312Y15099D01*
X11692Y15099D01*
G75*
D01*
G03X11692Y15401I408J151*
G01*
X10250Y15401D01*
G75*
D01*
G03X10143Y15357I0J-151*
G01*
X9743Y14957D01*
G75*
D01*
G03X9699Y14850I107J-107*
G01*
X9699Y14736D01*
X9631Y14736D01*
G75*
D01*
G03X8805Y14618I-430J63*
G01*
X8501Y14314D01*
G74*
D01*
G03X8459Y14235I105J107*
G01*
G74*
D01*
G03X8408Y14142I59J93*
G01*
X8408Y13414D01*
G75*
D01*
G03X8519Y13303I111J0*
G01*
X8696Y13303D01*
G74*
D01*
G03X8716Y13305I1J111*
G01*
G74*
D01*
G03X8757Y13230I147J31*
G01*
X8795Y13192D01*
G75*
D01*
G03X8967Y12749I-95J-292*
G01*
X10838Y12749D01*
X11193Y12393D01*
G75*
D01*
G03X11300Y12349I107J107*
G01*
X13638Y12349D01*
X14049Y11938D01*
X14049Y10162D01*
X12985Y9098D01*
X12985Y9098D01*
X12493Y8607D01*
X12493Y8607D01*
X10189Y6302D01*
G75*
D01*
G03X10145Y6195I106J-106*
G01*
X10145Y6174D01*
G75*
D01*
G03X10036Y6204I-105J-169*
G01*
G75*
D01*
G03X10059Y6564I-235J196*
G01*
X10295Y6564D01*
G75*
D01*
G03X10436Y6705I0J141*
G01*
X10436Y7295D01*
G74*
D01*
G03X10295Y7436I141J0*
G01*
X9705Y7436D01*
G75*
D01*
G03X9572Y7341I0J-141*
G01*
X9307Y7606D01*
G74*
D01*
G03X9232Y7647I106J106*
G01*
G75*
D01*
G03X9200Y7651I-34J-146*
G01*
X8500Y7651D01*
G75*
D01*
G03X8393Y7607I0J-151*
G01*
X8142Y7355D01*
G75*
D01*
G03X8098Y7248I106J-106*
G01*
X8098Y6135D01*
G74*
D01*
G03X8049Y6004I150J131*
G01*
X8049Y5512D01*
G75*
D01*
G03X8059Y5451I199J1*
G01*
X7786Y5451D01*
X7786Y5455D01*
X7786Y6045D01*
G74*
D01*
G03X7645Y6186I141J0*
G01*
X7055Y6186D01*
G75*
D01*
G03X7024Y6183I-2J-141*
G01*
X7121Y6279D01*
G75*
D01*
G03X7171Y6400I-121J121*
G01*
X7171Y6634D01*
X7245Y6634D01*
G75*
D01*
G03X7386Y6774I1J140*
G01*
X7386Y7365D01*
G74*
D01*
G03X7245Y7506I141J0*
G01*
X7242Y7506D01*
G75*
D01*
G03X7271Y7600I-141J95*
G01*
X7271Y8129D01*
X7740Y8599D01*
G75*
D01*
G03X7791Y8720I-119J121*
G01*
X7791Y9564D01*
X7915Y9564D01*
G75*
D01*
G03X8056Y9705I0J141*
G01*
X8056Y10295D01*
G74*
D01*
G03X7967Y10426I141J0*
G01*
G75*
D01*
G03X8011Y10540I-126J114*
G01*
X8011Y10584D01*
G75*
D01*
G03X8039Y10658I-83J74*
G01*
X8039Y11386D01*
G74*
D01*
G03X7928Y11497I111J0*
G01*
X7751Y11497D01*
G75*
D01*
G03X7712Y11490I0J-111*
G01*
G74*
D01*
G03X7672Y11497I39J104*
G01*
X7495Y11497D01*
G75*
D01*
G03X7479Y11495I6J-111*
G01*
X7479Y11551D01*
G75*
D01*
G03X7177Y11519I-179J248*
G01*
X7177Y11495D01*
G74*
D01*
G03X7161Y11497I22J108*
G01*
X6983Y11497D01*
G75*
D01*
G03X6873Y11386I1J-111*
G01*
X6873Y10658D01*
G75*
D01*
G03X6888Y10602I110J-1*
G01*
X6708Y10422D01*
G74*
D01*
G03X6687Y10427I111J421*
G01*
X6607Y10506D01*
G74*
D01*
G03X6554Y10541I107J105*
G01*
G74*
D01*
G03X6532Y10547I50J141*
G01*
X6649Y10547D01*
G75*
D01*
G03X6759Y10658I-1J111*
G01*
X6759Y11386D01*
G74*
D01*
G03X6649Y11497I110J1*
G01*
X6472Y11497D01*
G75*
D01*
G03X6455Y11495I4J-111*
G01*
X6455Y11996D01*
G74*
D01*
G03X6411Y12102I151J1*
G01*
X6213Y12300D01*
X6411Y12498D01*
G75*
D01*
G03X6455Y12604I-106J106*
G01*
X6455Y12949D01*
X7100Y12949D01*
G75*
D01*
G03X7116Y12950I-1J151*
G01*
G74*
D01*
G03X7207Y12994I16J149*
G01*
X7434Y13221D01*
G74*
D01*
G03X7477Y13305I105J107*
G01*
G75*
D01*
G03X7495Y13303I21J108*
G01*
X7672Y13303D01*
G75*
D01*
G03X7783Y13414I0J111*
G01*
X7783Y14142D01*
G74*
D01*
G03X7735Y14234I111J1*
G01*
X7735Y14321D01*
X7818Y14405D01*
G75*
D01*
G03X8055Y14368I183J394*
G01*
X7993Y14307D01*
G74*
D01*
G03X7955Y14239I108J105*
G01*
G74*
D01*
G03X7897Y14142I52J97*
G01*
X7897Y13414D01*
G75*
D01*
G03X8007Y13303I110J-1*
G01*
X8184Y13303D01*
G75*
D01*
G03X8295Y13414I0J111*
G01*
X8295Y14142D01*
G74*
D01*
G03X8289Y14176I111J2*
G01*
X8606Y14493D01*
G75*
D01*
G03X8651Y14600I-105J107*
G01*
X8651Y15000D01*
G74*
D01*
G03X8606Y15107I151J1*
G01*
X8007Y15706D01*
G74*
D01*
G03X7900Y15751I107J105*
G01*
X6816Y15751D01*
X6816Y15876D01*
G74*
D01*
G03X6676Y16016I140J0*
G01*
X6124Y16016D01*
G75*
D01*
G03X5984Y15876I0J-140*
G01*
X5984Y15324D01*
G75*
D01*
G03X6124Y15184I140J0*
G01*
X6676Y15184D01*
G75*
D01*
G03X6816Y15324I0J140*
G01*
X6816Y15449D01*
X7838Y15449D01*
X8055Y15232D01*
G75*
D01*
G03X7605Y14618I-55J-431*
G01*
X7477Y14490D01*
G75*
D01*
G03X7433Y14383I106J-106*
G01*
X7433Y14251D01*
G74*
D01*
G03X7417Y14253I22J108*
G01*
X7239Y14253D01*
G75*
D01*
G03X7223Y14251I6J-111*
G01*
X7223Y14428D01*
G74*
D01*
G03X7178Y14535I151J1*
G01*
X6607Y15106D01*
G74*
D01*
G03X6553Y15141I107J105*
G01*
G75*
D01*
G03X6500Y15151I-54J-140*
G01*
X5362Y15151D01*
X4951Y15562D01*
X4951Y16019D01*
G75*
D01*
G03X4649Y16019I-151J430*
G01*
X4649Y15500D01*
G75*
D01*
G03X4693Y15393I151J0*
G01*
X5136Y14951D01*
X4362Y14951D01*
X3951Y15362D01*
X3951Y16019D01*
G75*
D01*
G03X3649Y16019I-151J430*
G01*
X3649Y15300D01*
G75*
D01*
G03X3693Y15193I151J0*
G01*
X4136Y14751D01*
X3362Y14751D01*
X2951Y15162D01*
X2951Y16019D01*
G75*
D01*
G03X2649Y16019I-151J430*
G01*
X2649Y15100D01*
G75*
D01*
G03X2693Y14993I151J0*
G01*
X3193Y14493D01*
G74*
D01*
G03X3256Y14456I106J108*
G01*
G75*
D01*
G03X3300Y14449I45J143*
G01*
X6238Y14449D01*
X6410Y14277D01*
X6410Y14251D01*
G74*
D01*
G03X6393Y14253I21J108*
G01*
X6216Y14253D01*
G75*
D01*
G03X6176Y14245I1J-111*
G01*
G74*
D01*
G03X6137Y14253I41J102*
G01*
X5960Y14253D01*
G75*
D01*
G03X5920Y14245I1J-111*
G01*
G74*
D01*
G03X5881Y14253I41J102*
G01*
X5704Y14253D01*
G75*
D01*
G03X5665Y14245I2J-111*
G01*
G74*
D01*
G03X5625Y14253I41J102*
G01*
X5448Y14253D01*
G75*
D01*
G03X5337Y14142I0J-111*
G01*
X5337Y13451D01*
X4088Y13451D01*
G75*
D01*
G03X3580Y13663I-360J-148*
G01*
X3167Y14076D01*
G74*
D01*
G03X3060Y14120I106J106*
G01*
X2536Y14120D01*
G75*
D01*
G03X1945Y14365I-408J-148*
G01*
X1341Y14969D01*
G75*
D01*
G03X1153Y14731I-413J133*
G01*
X1732Y14152D01*
G75*
D01*
G03X2536Y13819I402J-167*
G01*
X2998Y13819D01*
X3367Y13450D01*
G75*
D01*
G03X4086Y13149I365J-137*
G01*
X5497Y13149D01*
G75*
D01*
G03X6030Y13303I302J-47*
G01*
X6137Y13303D01*
G74*
D01*
G03X6154Y13305I4J111*
G01*
X6154Y12667D01*
X5938Y12451D01*
X1300Y12451D01*
G75*
D01*
G03X1193Y12407I0J-151*
G01*
X293Y11507D01*
G75*
D01*
G03X249Y11400I107J-107*
G01*
X249Y9236D01*
X151Y9236D01*
X151Y16479D01*
G74*
D01*
G03X151Y16482I151J2*
G01*
G74*
D01*
G02X718Y17049I570J3*
G01*
G75*
D01*
G03X721Y17049I2J151*
G01*
X15279Y17049D01*
G74*
D01*
G03X15282Y17049I2J151*
G01*
G74*
D01*
G02X15620Y16936I3J570*
G01*
X15105Y16936D01*
G75*
D01*
G03X14964Y16795I0J-141*
G01*
X14964Y16205D01*
G75*
D01*
G03X15105Y16064I141J0*
G01*
X15249Y16064D01*
X15249Y15562D01*
X14821Y15135D01*
G75*
D01*
G03X14777Y15028I107J-107*
G01*
X14777Y14658D01*
G75*
D01*
G03X14777Y13842I151J-408*
G01*
X14777Y11572D01*
G75*
D01*
G03X14821Y11465I151J0*
G01*
X15649Y10638D01*
X15649Y3562D01*
X15257Y3170D01*
X14227Y3170D01*
G75*
D01*
G03X14227Y2869I-407J-150*
G01*
X15319Y2869D01*
G75*
D01*
G03X15368Y2877I1J151*
G01*
G74*
D01*
G03X15426Y2913I48J142*
G01*
X15849Y3336D01*
X15849Y521D01*
G75*
D01*
G03X15849Y518I151J-1*
G01*
G74*
D01*
G02X15282Y-49I570J3*
G01*
G74*
D01*
G03X15279Y-49I1J151*
G01*
X9564Y-49D01*
X9962Y349D01*
X10312Y349D01*
G75*
D01*
G03X10646Y58I334J46*
G01*
X10854Y58D01*
G75*
D01*
G03X11192Y396I0J338*
G01*
X11192Y604D01*
G74*
D01*
G03X10854Y942I338J0*
G01*
X10646Y942D01*
G75*
D01*
G03X10312Y651I1J-338*
G01*
X9900Y651D01*
G75*
D01*
G03X9856Y644I1J-151*
G01*
G74*
D01*
G03X9793Y607I42J144*
G01*
X9338Y151D01*
X9336Y151D01*
G74*
D01*
G03X9442Y396I231J245*
G01*
X9442Y604D01*
X5139Y7597D02*
X7194Y9652D01*
G75*
D01*
G03X7324Y9564I130J52*
G01*
X7449Y9564D01*
X7449Y8790D01*
X6979Y8321D01*
G75*
D01*
G03X6929Y8199I121J-121*
G01*
X6929Y7671D01*
X6829Y7571D01*
G74*
D01*
G03X6788Y7506I120J121*
G01*
X6655Y7506D01*
G75*
D01*
G03X6514Y7365I0J-141*
G01*
X6514Y6774D01*
G75*
D01*
G03X6655Y6634I141J1*
G01*
X6829Y6634D01*
X6829Y6471D01*
X6679Y6321D01*
G75*
D01*
G03X6629Y6200I121J-121*
G01*
X6629Y4216D01*
X6524Y4216D01*
G75*
D01*
G03X6384Y4076I0J-140*
G01*
X6384Y3524D01*
G75*
D01*
G03X6524Y3384I140J0*
G01*
X6629Y3384D01*
X6629Y3371D01*
X900Y3371D01*
G75*
D01*
G03X880Y3370I-1J-171*
G01*
G74*
D01*
G03X779Y3321I20J170*
G01*
X607Y3148D01*
G75*
D01*
G03X557Y3027I120J-120*
G01*
X557Y3021D01*
X432Y3021D01*
G75*
D01*
G03X292Y2881I0J-140*
G01*
X292Y2290D01*
G75*
D01*
G03X432Y2149I140J-1*
G01*
X1023Y2149D01*
G75*
D01*
G03X1164Y2290I0J141*
G01*
X1164Y2295D01*
X1480Y1978D01*
X1480Y1446D01*
G75*
D01*
G03X1532Y1343I129J0*
G01*
G74*
D01*
G03X1567Y1291I156J67*
G01*
X1679Y1179D01*
G75*
D01*
G03X1800Y1129I121J121*
G01*
X4029Y1129D01*
X4229Y929D01*
X4229Y200D01*
G75*
D01*
G03X4279Y79I171J0*
G01*
X4408Y-49D01*
X721Y-49D01*
G75*
D01*
G03X718Y-49I-1J-151*
G01*
G74*
D01*
G02X151Y518I3J570*
G01*
G75*
D01*
G03X151Y521I-151J2*
G01*
X151Y8364D01*
X695Y8364D01*
G75*
D01*
G03X836Y8505I0J141*
G01*
X836Y8649D01*
X1038Y8649D01*
X1149Y8538D01*
X1149Y7811D01*
G75*
D01*
G03X577Y7295I-420J-110*
G01*
X577Y6773D01*
G75*
D01*
G03X621Y6666I151J0*
G01*
X993Y6293D01*
G75*
D01*
G03X1100Y6249I107J107*
G01*
X4969Y6249D01*
G75*
D01*
G03X4969Y6551I430J151*
G01*
X1162Y6551D01*
X878Y6835D01*
X878Y7295D01*
G74*
D01*
G03X1149Y7596I150J407*
G01*
X1149Y7300D01*
G75*
D01*
G03X1193Y7193I151J0*
G01*
X1393Y6993D01*
G74*
D01*
G03X1478Y6951I106J108*
G01*
G75*
D01*
G03X1500Y6949I25J148*
G01*
X2600Y6949D01*
G75*
D01*
G03X2666Y6964I0J151*
G01*
G74*
D01*
G03X2707Y6994I67J135*
G01*
X3000Y7287D01*
G75*
D01*
G03X2759Y7472I128J416*
G01*
X2538Y7251D01*
X1562Y7251D01*
X1451Y7362D01*
X1451Y8600D01*
G74*
D01*
G03X1406Y8707I151J1*
G01*
X1207Y8906D01*
G74*
D01*
G03X1150Y8942I107J106*
G01*
G75*
D01*
G03X1100Y8951I-51J-141*
G01*
X836Y8951D01*
X836Y9095D01*
G74*
D01*
G03X695Y9236I141J0*
G01*
X551Y9236D01*
X551Y9575D01*
G75*
D01*
G03X632Y9549I81J114*
G01*
X1223Y9549D01*
G75*
D01*
G03X1364Y9690I0J141*
G01*
X1364Y9844D01*
G74*
D01*
G03X1419Y9879I51J141*
G01*
X1945Y10406D01*
G75*
D01*
G03X2536Y10650I183J395*
G01*
X3143Y10650D01*
G74*
D01*
G03X3250Y10695I1J151*
G01*
X3580Y11024D01*
G75*
D01*
G03X4093Y11249I147J361*
G01*
X4300Y11249D01*
G75*
D01*
G03X4354Y11259I0J151*
G01*
G74*
D01*
G03X4407Y11294I54J140*
G01*
X4462Y11349D01*
X4921Y11349D01*
G75*
D01*
G03X4909Y10860I178J-249*
G01*
X4909Y10679D01*
X4621Y10391D01*
X2900Y10391D01*
G75*
D01*
G03X2874Y10389I2J-191*
G01*
G74*
D01*
G03X2765Y10335I25J188*
G01*
X1765Y9335D01*
G75*
D01*
G03X1709Y9200I134J-135*
G01*
X1709Y8080D01*
G75*
D01*
G03X2091Y8107I219J-376*
G01*
X2091Y9121D01*
X2979Y10009D01*
X4700Y10009D01*
G75*
D01*
G03X4749Y10015I1J191*
G01*
G74*
D01*
G03X4835Y10065I50J184*
G01*
X5235Y10465D01*
G75*
D01*
G03X5291Y10600I-134J135*
G01*
X5291Y10860D01*
G74*
D01*
G03X5337Y10906I192J238*
G01*
X5337Y10658D01*
G75*
D01*
G03X5448Y10547I111J0*
G01*
X5625Y10547D01*
G74*
D01*
G03X5665Y10555I1J111*
G01*
G75*
D01*
G03X5704Y10547I41J102*
G01*
X5881Y10547D01*
G74*
D01*
G03X5898Y10549I4J111*
G01*
X5898Y10411D01*
X5412Y9925D01*
G75*
D01*
G03X5367Y9818I105J-107*
G01*
X5367Y9208D01*
G75*
D01*
G03X5482Y8366I150J-408*
G01*
X4970Y7854D01*
X4736Y7854D01*
G75*
D01*
G03X4736Y7553I-408J-150*
G01*
X5033Y7553D01*
G74*
D01*
G03X5139Y7597I0J150*
G01*
X3564Y2881D02*
X3564Y2736D01*
X3892Y2736D01*
X3892Y2881D01*
G75*
D01*
G02X4032Y3021I140J0*
G01*
X4623Y3021D01*
G74*
D01*
G02X4764Y2881I1J140*
G01*
X4764Y2290D01*
G75*
D01*
G02X4623Y2149I-141J0*
G01*
X4032Y2149D01*
G75*
D01*
G02X3892Y2290I1J141*
G01*
X3892Y2435D01*
X3564Y2435D01*
X3564Y2290D01*
G75*
D01*
G02X3423Y2149I-141J0*
G01*
X2832Y2149D01*
G75*
D01*
G02X2692Y2279I1J141*
G01*
X2540Y2127D01*
G74*
D01*
G02X2664Y1998I5J129*
G01*
X2664Y1471D01*
X4100Y1471D01*
G74*
D01*
G02X4221Y1421I0J171*
G01*
X4521Y1121D01*
G74*
D01*
G02X4571Y1000I121J121*
G01*
X4571Y271D01*
X4671Y171D01*
X4844Y171D01*
G75*
D01*
G02X4758Y396I251J225*
G01*
X4758Y604D01*
G74*
D01*
G02X5054Y939I338J0*
G01*
G74*
D01*
G02X5093Y1007I146J39*
G01*
X6777Y2690D01*
G75*
D01*
G02X6722Y3031I222J211*
G01*
G74*
D01*
G02X6700Y3029I26J168*
G01*
X971Y3029D01*
X963Y3021D01*
X1023Y3021D01*
G74*
D01*
G02X1164Y2881I1J140*
G01*
X1164Y2749D01*
G74*
D01*
G02X1236Y2706I49J164*
G01*
X1492Y2450D01*
X1492Y2881D01*
G75*
D01*
G02X1632Y3021I140J0*
G01*
X2223Y3021D01*
G74*
D01*
G02X2364Y2881I1J140*
G01*
X2364Y2377D01*
X2679Y2692D01*
G74*
D01*
G02X2692Y2703I103J109*
G01*
X2692Y2881D01*
G75*
D01*
G02X2832Y3021I140J0*
G01*
X3423Y3021D01*
G74*
D01*
G02X3564Y2881I1J140*
G01*
X7399Y750D02*
X7399Y758D01*
X6592Y-49D01*
X7636Y-49D01*
X7443Y143D01*
G75*
D01*
G02X7399Y250I107J107*
G01*
X7399Y750D01*
X9589Y3329D02*
X9211Y3329D01*
G74*
D01*
G02X9216Y3288I194J44*
G01*
X9216Y2796D01*
G75*
D01*
G02X9151Y2648I-200J0*
G01*
X9151Y1500D01*
G75*
D01*
G02X9106Y1393I-151J1*
G01*
X8411Y698D01*
G75*
D01*
G02X8294Y151I-411J-198*
G01*
X8664Y151D01*
G75*
D01*
G02X8558Y396I231J245*
G01*
X8558Y604D01*
G74*
D01*
G02X8854Y939I338J0*
G01*
G74*
D01*
G02X8893Y1007I146J39*
G01*
X9298Y1411D01*
X9298Y1411D01*
X9349Y1462D01*
X9349Y1900D01*
G75*
D01*
G02X9393Y2007I151J0*
G01*
X9633Y2246D01*
X9633Y2665D01*
G75*
D01*
G02X9584Y2796I150J131*
G01*
X9584Y3288D01*
G74*
D01*
G02X9589Y3329I200J4*
G01*
X10000Y5129D02*
X8900Y5129D01*
G75*
D01*
G02X8838Y5141I1J171*
G01*
G74*
D01*
G02X8779Y5179I61J159*
G01*
X8639Y5319D01*
G74*
D01*
G02X8633Y5326I127J115*
G01*
G74*
D01*
G02X8611Y5298I128J78*
G01*
X8507Y5194D01*
G74*
D01*
G02X8400Y5149I107J105*
G01*
X7400Y5149D01*
G75*
D01*
G02X7359Y5155I1J151*
G01*
G74*
D01*
G02X7293Y5193I39J145*
G01*
X7243Y5243D01*
G74*
D01*
G02X7204Y5314I108J106*
G01*
X7055Y5314D01*
G75*
D01*
G02X6971Y5342I0J141*
G01*
X6971Y4216D01*
X7076Y4216D01*
G74*
D01*
G02X7216Y4076I0J140*
G01*
X7216Y3524D01*
G75*
D01*
G02X7076Y3384I-140J0*
G01*
X6971Y3384D01*
X6971Y3300D01*
G75*
D01*
G02X6939Y3201I-171J1*
G01*
G75*
D01*
G02X7300Y2964I61J-301*
G01*
G75*
D01*
G02X7793Y3139I300J-62*
G01*
X7793Y3288D01*
G74*
D01*
G02X7822Y3391I200J1*
G01*
X7822Y3392D01*
G75*
D01*
G02X7872Y3513I171J0*
G01*
X7979Y3621D01*
G75*
D01*
G02X8100Y3671I121J-121*
G01*
X8800Y3671D01*
X8800Y3671D01*
X10000Y3671D01*
X10000Y3671D01*
X10729Y3671D01*
X10829Y3771D01*
X10829Y5029D01*
X10729Y5129D01*
X10000Y5129D01*
X10000Y5129D01*
X8764Y6204D02*
G75*
D01*
G02X9167Y6142I236J195*
G01*
X9167Y6135D01*
G74*
D01*
G02X9216Y6004I150J131*
G01*
X9216Y5512D01*
G75*
D01*
G02X9211Y5471I-200J4*
G01*
X9589Y5471D01*
G75*
D01*
G02X9584Y5512I194J44*
G01*
X9584Y6004D01*
G74*
D01*
G02X9633Y6135I200J0*
G01*
X9633Y6142D01*
G75*
D01*
G02X9590Y6624I167J258*
G01*
G75*
D01*
G02X9564Y6705I114J81*
G01*
X9564Y6923D01*
X9298Y7189D01*
X9138Y7349D01*
X8562Y7349D01*
X8399Y7186D01*
X8399Y6174D01*
G75*
D01*
G02X8632Y6157I105J-169*
G01*
G75*
D01*
G02X8764Y6204I128J-152*
G01*
X3367Y11238D02*
G75*
D01*
G02X4081Y11551I357J156*
G01*
X4238Y11551D01*
X4293Y11607D01*
G74*
D01*
G02X4388Y11650I106J108*
G01*
G75*
D01*
G02X4400Y11651I18J-149*
G01*
X5500Y11651D01*
X5507Y11651D01*
G74*
D01*
G02X5607Y11606I8J151*
G01*
X5643Y11570D01*
G74*
D01*
G02X5684Y11495I106J106*
G01*
G75*
D01*
G02X5704Y11497I21J-108*
G01*
X5881Y11497D01*
G74*
D01*
G02X5920Y11490I0J111*
G01*
G75*
D01*
G02X5960Y11497I39J-104*
G01*
X6137Y11497D01*
G74*
D01*
G02X6154Y11495I4J111*
G01*
X6154Y11933D01*
X5938Y12149D01*
X1362Y12149D01*
X551Y11338D01*
X551Y10395D01*
G75*
D01*
G02X632Y10421I81J-113*
G01*
X1223Y10421D01*
G74*
D01*
G02X1364Y10281I1J140*
G01*
X1364Y10250D01*
X1732Y10619D01*
G75*
D01*
G02X2536Y10952I402J166*
G01*
X3081Y10952D01*
X3367Y11238D01*
X15836Y16601D02*
X15836Y16205D01*
G75*
D01*
G02X15695Y16064I-141J0*
G01*
X15551Y16064D01*
X15551Y15500D01*
G75*
D01*
G02X15506Y15393I-151J1*
G01*
X15079Y14966D01*
X15079Y14658D01*
G75*
D01*
G02X15079Y13842I-151J-408*
G01*
X15079Y11634D01*
X15849Y10864D01*
X15849Y16479D01*
G74*
D01*
G02X15849Y16482I151J2*
G01*
G74*
D01*
G03X15836Y16601I570J2*
G01*
G54D12*
X1944Y1722D02*
X1944Y2569D01*
X1928Y2585D01*
X2200Y1722D02*
X2200Y2000D01*
X2785Y2585D01*
X2785Y2585D02*
X4328Y2585D01*
X3128Y7703D02*
X3128Y7628D01*
X2600Y7100D01*
X1500Y7100D01*
X1300Y7300D01*
X1300Y8600D01*
X1100Y8800D01*
X400Y8800D01*
X2128Y10801D02*
X3143Y10801D01*
X3742Y11400D01*
X928Y9985D02*
X1312Y9985D01*
X2128Y10801D01*
X7584Y14384D02*
X7584Y13778D01*
X8000Y14800D02*
X7584Y14384D01*
X5500Y13300D02*
X3730Y13300D01*
X5537Y11463D02*
X5500Y11500D01*
X5537Y11022D02*
X5537Y11463D01*
X5500Y11500D02*
X4400Y11500D01*
X4300Y11400D01*
X5537Y13778D02*
X5537Y13337D01*
X6500Y10400D02*
X6400Y10400D01*
X4300Y11400D02*
X3742Y11400D01*
X5537Y13337D02*
X5500Y13300D01*
X6300Y10500D02*
X6300Y11018D01*
X6600Y10300D02*
X6500Y10400D01*
X8600Y10500D02*
X8600Y11015D01*
X8741Y10359D02*
X8600Y10500D01*
X8741Y10000D02*
X8741Y10359D01*
X6400Y10400D02*
X6300Y10500D01*
X9200Y14800D02*
X8607Y14207D01*
X8607Y13778D01*
X5518Y8800D02*
X5518Y9818D01*
X6048Y10348D01*
X6048Y11022D01*
X994Y15103D02*
X2128Y13970D01*
X928Y15103D02*
X994Y15103D01*
X3060Y13970D02*
X3728Y13302D01*
X2128Y13970D02*
X3060Y13970D01*
X728Y7703D02*
X728Y6772D01*
X1100Y6400D01*
X6600Y10000D02*
X6600Y10300D01*
X400Y8800D02*
X400Y11400D01*
X1300Y12300D01*
X6000Y12300D02*
X6304Y11996D01*
X6304Y11022D01*
X1300Y12300D02*
X6000Y12300D01*
X6304Y12604D01*
X6304Y13778D01*
X6048Y13778D01*
X7328Y13778D02*
X7328Y13328D01*
X7100Y13100D01*
X6304Y13100D01*
X7100Y10300D02*
X7300Y10500D01*
X6600Y10100D02*
X7072Y10572D01*
X7072Y11022D01*
X7529Y10500D02*
X7584Y10555D01*
X7584Y11022D01*
X7300Y10500D02*
X7529Y10500D01*
X7840Y13778D02*
X7840Y12460D01*
X7900Y12400D02*
X8352Y12852D01*
X8352Y13778D01*
X6816Y11022D02*
X6816Y11916D01*
X7300Y12400D01*
X7900Y12400D01*
X8096Y11022D02*
X8096Y11704D01*
X7900Y11900D01*
X7900Y12400D01*
X8352Y11022D02*
X8352Y11948D01*
X7840Y12460D01*
X7328Y11022D02*
X7328Y11772D01*
X5100Y10600D02*
X4700Y10200D01*
X5100Y11100D02*
X5100Y10600D01*
X2900Y10200D02*
X1900Y9200D01*
X4700Y10200D02*
X2900Y10200D01*
X1900Y9200D02*
X1900Y7700D01*
X10750Y500D02*
X9900Y500D01*
X9400Y0D01*
X7800Y0D01*
X8700Y2100D02*
X8248Y2552D01*
X8248Y3042D01*
X9784Y3042D02*
X9784Y2184D01*
X9000Y500D02*
X9000Y900D01*
X8000Y500D02*
X9000Y1500D01*
X9000Y3026D01*
X9016Y3042D01*
X8400Y1200D02*
X8700Y1500D01*
X8000Y1200D02*
X8400Y1200D01*
X8700Y1500D02*
X8700Y2100D01*
X5033Y7703D02*
X7100Y9771D01*
X7100Y10300D01*
X4328Y7703D02*
X5033Y7703D01*
X9500Y1400D02*
X9500Y1900D01*
X9784Y2184D02*
X9500Y1900D01*
X9000Y900D02*
X9500Y1400D01*
X10552Y5758D02*
X10552Y6152D01*
X10700Y6300D01*
X9850Y14300D02*
X9850Y14850D01*
X10250Y15250D01*
X12100Y15250D01*
X8950Y13250D02*
X8863Y13337D01*
X8863Y13778D01*
X8950Y13250D02*
X13250Y13250D01*
X13550Y13550D01*
X13550Y14250D01*
X14928Y15028D02*
X15400Y15500D01*
X15400Y16500D01*
X8950Y11650D02*
X8863Y11563D01*
X8863Y11022D01*
X8950Y11650D02*
X13150Y11650D01*
X13550Y11250D01*
X13550Y10650D01*
X14928Y10650D02*
X14928Y9072D01*
X15100Y8900D01*
X15100Y7800D02*
X15100Y8900D01*
X15100Y7800D02*
X14600Y7300D01*
X14600Y5101D01*
X13819Y4320D01*
X15320Y3020D02*
X13819Y3020D01*
X10807Y3042D02*
X11828Y3042D01*
X11850Y3020D01*
X10700Y6300D02*
X11600Y6300D01*
X11800Y6100D02*
X11800Y5670D01*
X11850Y5620D01*
X11800Y6100D02*
X11600Y6300D01*
X8504Y5758D02*
X8504Y5404D01*
X7350Y5350D02*
X7350Y5750D01*
X10950Y9200D02*
X11550Y9200D01*
X12000Y9650D01*
X8248Y5758D02*
X8248Y7248D01*
X8500Y7500D01*
X9700Y7000D02*
X9200Y7500D01*
X10000Y7000D02*
X9700Y7000D01*
X9200Y7500D02*
X8500Y7500D01*
X9016Y5758D02*
X9016Y6384D01*
X9784Y5758D02*
X9784Y6384D01*
X8400Y5300D02*
X7400Y5300D01*
X8400Y5300D02*
X8504Y5404D01*
X7400Y5300D02*
X7350Y5350D01*
X5200Y500D02*
X5200Y900D01*
X7000Y2700D01*
X7000Y2900D01*
X6200Y500D02*
X6200Y1500D01*
X7600Y2900D01*
X5793Y13778D02*
X5793Y13107D01*
X8700Y12900D02*
X10900Y12900D01*
X11300Y12500D01*
X12600Y8500D02*
X10296Y6196D01*
X10296Y5758D01*
X14200Y10100D02*
X12600Y8500D01*
X13700Y12500D02*
X14200Y12000D01*
X14200Y10100D01*
X11300Y12500D02*
X13700Y12500D01*
X11520Y1780D02*
X10552Y2748D01*
X11831Y1780D02*
X11520Y1780D01*
X10552Y2748D02*
X10552Y3042D01*
X10296Y3042D02*
X10296Y2704D01*
X11700Y1300D01*
X12500Y1300D01*
X12800Y1600D01*
X12800Y3500D01*
X13050Y3750D01*
X14950Y3750D01*
X10807Y5758D02*
X11042Y5758D01*
X11300Y5500D01*
X11300Y5300D01*
X11850Y4750D01*
X11850Y4320D01*
X2712Y1722D02*
X4622Y1722D01*
X4750Y1850D01*
X5400Y1850D01*
X5400Y6400D02*
X1100Y6400D01*
X7550Y250D02*
X7550Y750D01*
X8000Y1200D01*
X7800Y0D02*
X7550Y250D01*
X14928Y11572D02*
X14928Y15028D01*
X15800Y10700D02*
X15800Y3500D01*
X14928Y11572D02*
X15800Y10700D01*
X15800Y3500D02*
X15320Y3020D01*
X3300Y14600D02*
X2800Y15100D01*
X6816Y13778D02*
X6800Y13794D01*
X4300Y14800D02*
X3800Y15300D01*
X5300Y15000D02*
X4800Y15500D01*
X2800Y15100D02*
X2800Y16450D01*
X3800Y15300D02*
X3800Y16450D01*
X4800Y15500D02*
X4800Y16450D01*
X7072Y14428D02*
X6500Y15000D01*
X7072Y13778D02*
X7072Y14428D01*
X6500Y15000D02*
X5300Y15000D01*
X6300Y14600D02*
X3300Y14600D01*
X6560Y13778D02*
X6560Y14340D01*
X6800Y14400D02*
X6400Y14800D01*
X6800Y13794D02*
X6800Y14400D01*
X6400Y14800D02*
X4300Y14800D01*
X6560Y14340D02*
X6300Y14600D01*
X8500Y15000D02*
X8500Y14600D01*
X8100Y14200D02*
X8100Y13782D01*
X8500Y14600D02*
X8100Y14200D01*
X7900Y15600D02*
X8500Y15000D01*
X6400Y15600D02*
X7900Y15600D01*
G54D13*
X1688Y2012D02*
X1115Y2585D01*
X728Y2585D01*
X7840Y10540D02*
X7840Y11022D01*
X7620Y10320D02*
X7840Y10540D01*
X7620Y8720D02*
X7620Y10320D01*
X7620Y8720D02*
X7100Y8200D01*
X7400Y1830D02*
X8189Y1830D01*
X8200Y1820D02*
X8200Y2300D01*
X7993Y2507D01*
X7993Y3393D01*
X8100Y3500D01*
X8760Y3042D02*
X8760Y3460D01*
X8800Y3500D01*
X728Y2585D02*
X728Y3028D01*
X900Y3200D01*
X6700Y3200D01*
X6800Y3300D01*
X11750Y950D02*
X10040Y2660D01*
X11750Y500D02*
X11750Y950D01*
X7000Y6400D02*
X6800Y6200D01*
X6800Y3300D02*
X6800Y6200D01*
X7000Y6400D02*
X7000Y7020D01*
X6950Y7070D01*
X6950Y7450D01*
X7100Y7600D01*
X7100Y8200D01*
X8900Y5300D02*
X8760Y5440D01*
X8760Y5758D01*
X11000Y3700D02*
X10800Y3500D01*
X8100Y3500D02*
X10800Y3500D01*
X10800Y5300D02*
X11000Y5100D01*
X11000Y3700D01*
X8900Y5300D02*
X10800Y5300D01*
X10040Y2660D02*
X10040Y3460D01*
X10000Y3500D01*
X10040Y5758D02*
X10040Y5340D01*
X10000Y5300D01*
X1688Y1412D02*
X1688Y2012D01*
X1800Y1300D02*
X4100Y1300D01*
X1688Y1412D02*
X1800Y1300D01*
X4100Y1300D02*
X4400Y1000D01*
X7400Y1000D02*
X7400Y1830D01*
X6400Y0D02*
X7400Y1000D01*
X4400Y200D02*
X4600Y0D01*
X6400Y0D01*
X4400Y1000D02*
X4400Y200D01*
G54D14*
X928Y15103D03*
X2128Y10801D03*
X8000Y14800D03*
X9200Y14800D03*
X8721Y8000D03*
X7600Y8000D03*
X6600Y10000D03*
X2128Y13970D03*
X5518Y8800D03*
X728Y7703D03*
X1928Y7703D03*
X3128Y7703D03*
X4328Y7703D03*
X9982Y8200D03*
X15118Y7000D03*
X10200Y1800D03*
X5400Y1850D03*
X11831Y1780D03*
X13819Y5620D03*
X9850Y9182D03*
X10950Y14318D03*
X14928Y10650D03*
X14928Y14250D03*
X10282Y16500D03*
X8950Y7050D03*
X6350Y5750D03*
X12000Y9650D03*
X12100Y15250D03*
X13819Y3020D03*
X13819Y4320D03*
X14950Y3750D03*
G54D15*
X928Y9985D03*
X2128Y11785D03*
X8020Y16800D03*
X9220Y16800D03*
X8741Y10000D03*
X7620Y10000D03*
X6580Y8000D03*
X2128Y12985D03*
X400Y8800D03*
X728Y2585D03*
X1928Y2585D03*
X3128Y2585D03*
X4328Y2585D03*
X15100Y8200D03*
X10000Y7000D03*
X8200Y1820D03*
X7400Y1830D03*
X13800Y1780D03*
X11850Y5620D03*
X9850Y14300D03*
X10950Y9200D03*
X13550Y10650D03*
X13550Y14250D03*
X15400Y16500D03*
X6950Y7070D03*
X7350Y5750D03*
X12020Y11650D03*
X12080Y13250D03*
X11850Y3020D03*
X11850Y4320D03*
X14930Y1750D03*
G54D16*
X3728Y11385D03*
X3728Y13302D03*
G54D17*
X5537Y11022D03*
X5793Y11022D03*
X6048Y11022D03*
X6304Y11022D03*
X6560Y11022D03*
X6816Y11022D03*
X7328Y11022D03*
X7584Y11022D03*
X7072Y11022D03*
X7840Y11022D03*
X8096Y11022D03*
X8352Y11022D03*
X8607Y11022D03*
X8863Y11022D03*
X6048Y13778D03*
X5793Y13778D03*
X5537Y13778D03*
X6816Y13778D03*
X6560Y13778D03*
X6304Y13778D03*
X7328Y13778D03*
X7584Y13778D03*
X7072Y13778D03*
X8352Y13778D03*
X8096Y13778D03*
X7840Y13778D03*
X8607Y13778D03*
X8863Y13778D03*
G54D18*
X7900Y12400D03*
X7300Y11800D03*
X5100Y11100D03*
X9000Y6400D03*
X9800Y6400D03*
X7000Y2900D03*
X7600Y2900D03*
X5800Y13100D03*
X8700Y12900D03*
X700Y1500D03*
X9400Y2400D03*
G54D19*
X9000Y500D03*
X10750Y500D03*
X5400Y7400D03*
X5200Y500D03*
X1800Y16450D03*
G54D20*
X8896Y396D02*
X9104Y396D01*
X9104Y604D01*
X8896Y604D01*
X8896Y396D01*D02*
X10646Y396D02*
X10854Y396D01*
X10854Y604D01*
X10646Y604D01*
X10646Y396D01*D02*
X5296Y7296D02*
X5504Y7296D01*
X5504Y7504D01*
X5296Y7504D01*
X5296Y7296D01*D02*
X5096Y396D02*
X5304Y396D01*
X5304Y604D01*
X5096Y604D01*
X5096Y396D01*D02*
X1696Y16346D02*
X1904Y16346D01*
X1904Y16554D01*
X1696Y16554D01*
X1696Y16346D01*D02*
G54D21*
X8000Y500D03*
X11750Y500D03*
X12750Y500D03*
X5400Y6400D03*
X6200Y500D03*
X3800Y16450D03*
X2800Y16450D03*
X4800Y16450D03*
G54D22*
X8400Y4000D03*
X8900Y4000D03*
X9400Y4000D03*
X9900Y4000D03*
X10400Y4000D03*
X8400Y4800D03*
X8900Y4800D03*
X8900Y4400D03*
X8400Y4400D03*
X9400Y4800D03*
X9400Y4400D03*
X9900Y4800D03*
X10400Y4800D03*
X10400Y4400D03*
X9900Y4400D03*
G54D23*
X5816Y3800D03*
X6400Y16387D03*
G54D24*
X6800Y3800D03*
X6400Y15600D03*
G54D25*
X724Y600D03*
X3676Y600D03*
G54D26*
X1747Y600D03*
X2653Y600D03*
G54D27*
X1688Y1722D03*
X2200Y1722D03*
X1944Y1722D03*
X2456Y1722D03*
X2712Y1722D03*
G54D28*
X7993Y3042D03*
X8760Y3042D03*
X8504Y3042D03*
X8248Y3042D03*
X9528Y3042D03*
X9272Y3042D03*
X9016Y3042D03*
X10040Y3042D03*
X9784Y3042D03*
X10296Y3042D03*
X10807Y3042D03*
X10552Y3042D03*
X7993Y5758D03*
X8760Y5758D03*
X8504Y5758D03*
X8248Y5758D03*
X9528Y5758D03*
X9272Y5758D03*
X9016Y5758D03*
X10040Y5758D03*
X9784Y5758D03*
X10296Y5758D03*
X10807Y5758D03*
X10552Y5758D03*

M02*
