G04 Generated by Ultiboard 13.0 *
%FSLAX24Y24*%
%MOIN*%

%ADD10C,0.0001*%
%ADD11C,0.0037*%


G04 ColorRGB FF14FF for the following layer *
%LNSilkscreen Bottom*%
%LPD*%
G54D10*
G54D11*
X9325Y867D02*
X9325Y1261D01*
X9168Y1261D01*
X9089Y1182D01*
X9089Y1143D01*
X9168Y1064D01*
X9325Y1064D01*
X9285Y1064D02*
X9089Y867D01*
X8854Y867D02*
X8854Y1103D01*
X8854Y1182D02*
X8854Y1221D01*
X8619Y828D02*
X8541Y749D01*
X8462Y749D01*
X8384Y828D01*
X8384Y946D01*
X8384Y1064D01*
X8462Y1143D01*
X8541Y1143D01*
X8619Y1064D01*
X8619Y946D01*
X8541Y867D01*
X8462Y867D01*
X8384Y946D01*
X8266Y1064D02*
X8188Y1143D01*
X8110Y1143D01*
X8031Y1064D01*
X8031Y867D01*
X8266Y1261D02*
X8266Y867D01*
X7718Y906D02*
X7757Y867D01*
X7796Y906D01*
X7796Y1261D01*
X7874Y1143D02*
X7718Y1143D01*
X6372Y1261D02*
X6372Y867D01*
X6137Y867D01*
X5784Y946D02*
X5862Y867D01*
X5941Y867D01*
X6019Y946D01*
X6019Y1064D01*
X5941Y1143D01*
X5862Y1143D01*
X5784Y1064D01*
X5823Y1024D01*
X6019Y1024D01*
X5627Y867D02*
X5627Y1221D01*
X5588Y1261D01*
X5510Y1261D01*
X5470Y1221D01*
X5666Y1103D02*
X5588Y1103D01*
X5118Y906D02*
X5157Y867D01*
X5196Y906D01*
X5196Y1261D01*
X5274Y1143D02*
X5118Y1143D01*
X13484Y1064D02*
X13406Y1064D01*
X13406Y946D01*
X13484Y867D01*
X13563Y867D01*
X13641Y946D01*
X13641Y1182D01*
X13563Y1261D01*
X13406Y1261D01*
X13288Y867D02*
X13288Y1261D01*
X13053Y867D01*
X13053Y1261D01*
X12936Y867D02*
X12779Y867D01*
X12700Y946D01*
X12700Y1182D01*
X12779Y1261D01*
X12936Y1261D01*
X12896Y1261D02*
X12896Y867D01*
X12230Y1261D02*
X12113Y867D01*
X11995Y1261D01*
X11877Y867D02*
X11721Y867D01*
X11642Y946D01*
X11642Y1182D01*
X11721Y1261D01*
X11877Y1261D01*
X11838Y1261D02*
X11838Y867D01*
X11525Y867D02*
X11368Y867D01*
X11289Y946D01*
X11289Y1182D01*
X11368Y1261D01*
X11525Y1261D01*
X11485Y1261D02*
X11485Y867D01*
X10819Y1261D02*
X10701Y867D01*
X10584Y1261D01*
X10466Y946D02*
X10388Y867D01*
X10310Y867D01*
X10231Y946D01*
X10231Y1182D01*
X10310Y1261D01*
X10388Y1261D01*
X10466Y1182D01*
X10466Y946D01*
X10114Y1261D02*
X10114Y867D01*
X9878Y867D01*
X11109Y11818D02*
X11109Y12054D01*
X11031Y12212D01*
X10952Y12212D01*
X10874Y12054D01*
X10874Y11818D01*
X11109Y11936D02*
X10874Y11936D01*
X10756Y11818D02*
X10756Y12054D01*
X10756Y12094D01*
X10756Y12054D02*
X10717Y12094D01*
X10639Y12094D01*
X10600Y12054D01*
X10600Y11818D01*
X10169Y11897D02*
X10247Y11818D01*
X10325Y11818D01*
X10404Y11897D01*
X10404Y11976D01*
X10325Y12054D01*
X10247Y12054D01*
X10169Y11976D01*
X10169Y12212D02*
X10169Y11818D01*
X10051Y11976D02*
X9933Y12094D01*
X9894Y12094D01*
X9816Y12015D01*
X10051Y11818D02*
X10051Y12094D01*
X9463Y11897D02*
X9541Y11818D01*
X9620Y11818D01*
X9698Y11897D01*
X9698Y12015D01*
X9620Y12094D01*
X9541Y12094D01*
X9463Y12015D01*
X9502Y11976D01*
X9698Y11976D01*
X9306Y12094D02*
X9189Y12094D01*
X9149Y12054D01*
X9149Y11857D01*
X9189Y11818D01*
X9306Y11818D01*
X9345Y11857D01*
X9345Y11936D01*
X9306Y11976D01*
X9149Y11976D01*
X9149Y11857D02*
X9110Y11818D01*
X8993Y11897D02*
X8914Y11818D01*
X8836Y11818D01*
X8758Y11897D01*
X8993Y12015D01*
X8914Y12094D01*
X8836Y12094D01*
X8758Y12015D01*
X8287Y11818D02*
X8130Y11818D01*
X8052Y11897D01*
X8052Y12133D01*
X8130Y12212D01*
X8287Y12212D01*
X8248Y12212D02*
X8248Y11818D01*
X7895Y12094D02*
X7778Y12094D01*
X7738Y12054D01*
X7738Y11857D01*
X7778Y11818D01*
X7895Y11818D01*
X7934Y11857D01*
X7934Y11936D01*
X7895Y11976D01*
X7738Y11976D01*
X7738Y11857D02*
X7699Y11818D01*
X7582Y12015D02*
X7503Y12094D01*
X7425Y12094D01*
X7347Y12015D01*
X7347Y11818D01*
X7582Y12212D02*
X7582Y11818D01*
X7190Y12212D02*
X7190Y11897D01*
X7111Y11818D01*
X6876Y11897D02*
X6798Y11818D01*
X6719Y11818D01*
X6641Y11897D01*
X6641Y11976D01*
X6719Y12054D01*
X6798Y12054D01*
X6876Y11976D01*
X6876Y12212D02*
X6876Y11818D01*
X6288Y11897D02*
X6367Y11818D01*
X6445Y11818D01*
X6523Y11897D01*
X6523Y12015D01*
X6445Y12094D01*
X6367Y12094D01*
X6288Y12015D01*
X6327Y11976D01*
X6523Y11976D01*
X6171Y11976D02*
X6053Y12094D01*
X6014Y12094D01*
X5935Y12015D01*
X6171Y11818D02*
X6171Y12094D01*
X5818Y11779D02*
X5740Y11700D01*
X5661Y11700D01*
X5583Y11779D01*
X5583Y11897D01*
X5583Y12015D01*
X5661Y12094D01*
X5740Y12094D01*
X5818Y12015D01*
X5818Y11897D01*
X5740Y11818D01*
X5661Y11818D01*
X5583Y11897D01*
X11638Y11464D02*
X11560Y11543D01*
X11482Y11543D01*
X11403Y11464D01*
X11403Y11267D01*
X11638Y11661D02*
X11638Y11267D01*
X11090Y11306D02*
X11129Y11267D01*
X11168Y11306D01*
X11168Y11661D01*
X11246Y11543D02*
X11090Y11543D01*
X10737Y11306D02*
X10776Y11267D01*
X10815Y11306D01*
X10815Y11661D01*
X10894Y11543D02*
X10737Y11543D01*
X10580Y11346D02*
X10502Y11267D01*
X10423Y11267D01*
X10345Y11346D01*
X10345Y11464D01*
X10423Y11543D01*
X10502Y11543D01*
X10580Y11464D01*
X10580Y11149D02*
X10580Y11543D01*
X10110Y11621D02*
X10110Y11543D01*
X10110Y11306D02*
X10110Y11385D01*
X9639Y11661D02*
X9875Y11267D01*
X9287Y11661D02*
X9522Y11267D01*
X9169Y11464D02*
X9091Y11543D01*
X9012Y11543D01*
X8934Y11464D01*
X8934Y11267D01*
X9169Y11661D02*
X9169Y11267D01*
X8777Y11543D02*
X8660Y11543D01*
X8620Y11503D01*
X8620Y11306D01*
X8660Y11267D01*
X8777Y11267D01*
X8816Y11306D01*
X8816Y11385D01*
X8777Y11424D01*
X8620Y11424D01*
X8620Y11306D02*
X8581Y11267D01*
X8424Y11661D02*
X8424Y11346D01*
X8346Y11267D01*
X8072Y11661D02*
X8072Y11346D01*
X7993Y11267D01*
X7758Y11346D02*
X7680Y11267D01*
X7601Y11267D01*
X7523Y11346D01*
X7523Y11464D01*
X7601Y11543D01*
X7680Y11543D01*
X7758Y11464D01*
X7758Y11346D01*
X7405Y11267D02*
X7405Y11503D01*
X7405Y11543D01*
X7405Y11503D02*
X7366Y11543D01*
X7288Y11543D01*
X7249Y11503D01*
X7249Y11267D01*
X7053Y11346D02*
X6974Y11267D01*
X6896Y11267D01*
X6817Y11346D01*
X6817Y11424D01*
X6896Y11503D01*
X6974Y11503D01*
X7053Y11424D01*
X7053Y11661D02*
X7053Y11267D01*
X6700Y11346D02*
X6621Y11267D01*
X6543Y11267D01*
X6465Y11346D01*
X6465Y11464D01*
X6543Y11543D01*
X6621Y11543D01*
X6700Y11464D01*
X6700Y11346D01*
X6347Y11267D02*
X6112Y11543D01*
X6347Y11543D02*
X6112Y11267D01*
X5877Y11267D02*
X5877Y11306D01*
X5446Y11306D02*
X5485Y11267D01*
X5563Y11267D01*
X5642Y11346D01*
X5642Y11464D01*
X5563Y11543D01*
X5485Y11543D01*
X5446Y11503D01*
X5289Y11346D02*
X5210Y11267D01*
X5132Y11267D01*
X5054Y11346D01*
X5054Y11464D01*
X5132Y11543D01*
X5210Y11543D01*
X5289Y11464D01*
X5289Y11346D01*
X4936Y11267D02*
X4936Y11503D01*
X4936Y11543D01*
X4936Y11503D02*
X4897Y11543D01*
X4858Y11543D01*
X4818Y11503D01*
X4779Y11543D01*
X4740Y11543D01*
X4701Y11503D01*
X4701Y11267D01*
X4818Y11503D02*
X4818Y11267D01*

M02*
