G04 Generated by Ultiboard 13.0 *
%FSLAX24Y24*%
%MOIN*%

%ADD10C,0.0001*%
%ADD11C,0.0037*%


G04 ColorRGB FF14FF for the following layer *
%LNSilkscreen Bottom*%
%LPD*%
G54D10*
G54D11*
X9325Y867D02*
X9325Y1261D01*
X9168Y1261D01*
X9089Y1182D01*
X9089Y1143D01*
X9168Y1064D01*
X9325Y1064D01*
X9285Y1064D02*
X9089Y867D01*
X8854Y867D02*
X8854Y1103D01*
X8854Y1182D02*
X8854Y1221D01*
X8619Y828D02*
X8541Y749D01*
X8462Y749D01*
X8384Y828D01*
X8384Y946D01*
X8384Y1064D01*
X8462Y1143D01*
X8541Y1143D01*
X8619Y1064D01*
X8619Y946D01*
X8541Y867D01*
X8462Y867D01*
X8384Y946D01*
X8266Y1064D02*
X8188Y1143D01*
X8110Y1143D01*
X8031Y1064D01*
X8031Y867D01*
X8266Y1261D02*
X8266Y867D01*
X7718Y906D02*
X7757Y867D01*
X7796Y906D01*
X7796Y1261D01*
X7874Y1143D02*
X7718Y1143D01*
X6372Y1261D02*
X6372Y867D01*
X6137Y867D01*
X5784Y946D02*
X5862Y867D01*
X5941Y867D01*
X6019Y946D01*
X6019Y1064D01*
X5941Y1143D01*
X5862Y1143D01*
X5784Y1064D01*
X5823Y1024D01*
X6019Y1024D01*
X5627Y867D02*
X5627Y1221D01*
X5588Y1261D01*
X5510Y1261D01*
X5470Y1221D01*
X5666Y1103D02*
X5588Y1103D01*
X5118Y906D02*
X5157Y867D01*
X5196Y906D01*
X5196Y1261D01*
X5274Y1143D02*
X5118Y1143D01*
X13484Y1064D02*
X13406Y1064D01*
X13406Y946D01*
X13484Y867D01*
X13563Y867D01*
X13641Y946D01*
X13641Y1182D01*
X13563Y1261D01*
X13406Y1261D01*
X13288Y867D02*
X13288Y1261D01*
X13053Y867D01*
X13053Y1261D01*
X12936Y867D02*
X12779Y867D01*
X12700Y946D01*
X12700Y1182D01*
X12779Y1261D01*
X12936Y1261D01*
X12896Y1261D02*
X12896Y867D01*
X12230Y1261D02*
X12113Y867D01*
X11995Y1261D01*
X11877Y867D02*
X11721Y867D01*
X11642Y946D01*
X11642Y1182D01*
X11721Y1261D01*
X11877Y1261D01*
X11838Y1261D02*
X11838Y867D01*
X11525Y867D02*
X11368Y867D01*
X11289Y946D01*
X11289Y1182D01*
X11368Y1261D01*
X11525Y1261D01*
X11485Y1261D02*
X11485Y867D01*
X10819Y1261D02*
X10701Y867D01*
X10584Y1261D01*
X10466Y946D02*
X10388Y867D01*
X10310Y867D01*
X10231Y946D01*
X10231Y1182D01*
X10310Y1261D01*
X10388Y1261D01*
X10466Y1182D01*
X10466Y946D01*
X10114Y1261D02*
X10114Y867D01*
X9878Y867D01*

M02*
