G04 Generated by Ultiboard 13.0 *
%FSLAX24Y24*%
%MOIN*%

%ADD10C,0.0001*%
%ADD11C,0.0001*%
%ADD12C,0.08246*%
%ADD13C,0.0591*%
%ADD14R,0.0591X0.0591*%
%ADD15C,0.0500*%
%ADD16C,0.0551*%
%ADD17R,0.0551X0.0551*%
%ADD18R,0.0177X0.0728*%
%ADD19C,0.0394*%
%ADD20R,0.0208X0.0208*%
%ADD21C,0.0392*%
%ADD22C,0.0633*%
%ADD23C,0.0300*%
%ADD24R,0.0906X0.0748*%
%ADD25R,0.0709X0.0748*%
%ADD26R,0.0157X0.0551*%
%ADD27O,0.0177X0.0669*%


G04 ColorRGB FF00CC for the following layer *
%LNSolder Mask Top*%
%LPD*%
G54D10*
G54D11*
G36*
X8000Y3700D02*
X8000Y5100D01*
X10800Y5100D01*
X10800Y3700D01*
X8000Y3700D01*
G37*
G54D12*
X700Y16600D03*
G54D13*
X928Y15103D03*
X2128Y10801D03*
X8000Y14800D03*
X9200Y14800D03*
X8721Y8000D03*
X7600Y8000D03*
X6600Y10000D03*
X2128Y13970D03*
X5518Y8800D03*
X728Y7703D03*
X1928Y7703D03*
X3128Y7703D03*
X4328Y7703D03*
X9982Y8200D03*
X15118Y7000D03*
X10200Y1800D03*
X5400Y1850D03*
X11831Y1780D03*
X13819Y5620D03*
X9850Y9182D03*
X10950Y14318D03*
X14928Y10650D03*
X14928Y14250D03*
X10282Y16500D03*
X8950Y7050D03*
X6350Y5750D03*
X12000Y9650D03*
X12100Y15250D03*
X13819Y3020D03*
X13819Y4320D03*
X14950Y3750D03*
G54D14*
X928Y9985D03*
X2128Y11785D03*
X8020Y16800D03*
X9220Y16800D03*
X8741Y10000D03*
X7620Y10000D03*
X6580Y8000D03*
X2128Y12985D03*
X400Y8800D03*
X728Y2585D03*
X1928Y2585D03*
X3128Y2585D03*
X4328Y2585D03*
X15100Y8200D03*
X10000Y7000D03*
X8200Y1820D03*
X7400Y1830D03*
X13800Y1780D03*
X11850Y5620D03*
X9850Y14300D03*
X10950Y9200D03*
X13550Y10650D03*
X13550Y14250D03*
X15400Y16500D03*
X6950Y7070D03*
X7350Y5750D03*
X12020Y11650D03*
X12080Y13250D03*
X11850Y3020D03*
X11850Y4320D03*
X14930Y1750D03*
G54D15*
X3728Y11385D03*
X3728Y13302D03*
G54D16*
X6400Y16387D03*
X5816Y3800D03*
G54D17*
X6400Y15600D03*
X6800Y3800D03*
G54D18*
X5537Y11022D03*
X5793Y11022D03*
X6048Y11022D03*
X6304Y11022D03*
X6560Y11022D03*
X6816Y11022D03*
X7328Y11022D03*
X7584Y11022D03*
X7072Y11022D03*
X7840Y11022D03*
X8096Y11022D03*
X8352Y11022D03*
X8607Y11022D03*
X8863Y11022D03*
X6048Y13778D03*
X5793Y13778D03*
X5537Y13778D03*
X6816Y13778D03*
X6560Y13778D03*
X6304Y13778D03*
X7328Y13778D03*
X7584Y13778D03*
X7072Y13778D03*
X8352Y13778D03*
X8096Y13778D03*
X7840Y13778D03*
X8607Y13778D03*
X8863Y13778D03*
G54D19*
X7900Y12400D03*
X7300Y11800D03*
X5100Y11100D03*
X9000Y6400D03*
X9800Y6400D03*
X7000Y2900D03*
X7600Y2900D03*
X5800Y13100D03*
X8700Y12900D03*
X700Y1500D03*
X9400Y2400D03*
G54D20*
X9000Y500D03*
X10750Y500D03*
X5400Y7400D03*
X5200Y500D03*
X4800Y16400D03*
G54D21*
X8896Y396D02*
X9104Y396D01*
X9104Y604D01*
X8896Y604D01*
X8896Y396D01*D02*
X10646Y396D02*
X10854Y396D01*
X10854Y604D01*
X10646Y604D01*
X10646Y396D01*D02*
X5296Y7296D02*
X5504Y7296D01*
X5504Y7504D01*
X5296Y7504D01*
X5296Y7296D01*D02*
X5096Y396D02*
X5304Y396D01*
X5304Y604D01*
X5096Y604D01*
X5096Y396D01*D02*
X4696Y16296D02*
X4904Y16296D01*
X4904Y16504D01*
X4696Y16504D01*
X4696Y16296D01*D02*
G54D22*
X8000Y500D03*
X11750Y500D03*
X12750Y500D03*
X5400Y6400D03*
X6200Y500D03*
X3800Y16400D03*
X2800Y16400D03*
G54D23*
X8400Y4000D03*
X8900Y4000D03*
X9400Y4000D03*
X9900Y4000D03*
X10400Y4000D03*
X8400Y4800D03*
X8900Y4800D03*
X8900Y4400D03*
X8400Y4400D03*
X9400Y4800D03*
X9400Y4400D03*
X9900Y4800D03*
X10400Y4800D03*
X10400Y4400D03*
X9900Y4400D03*
G54D24*
X724Y600D03*
X3676Y600D03*
G54D25*
X1747Y600D03*
X2653Y600D03*
G54D26*
X1688Y1722D03*
X2200Y1722D03*
X1944Y1722D03*
X2456Y1722D03*
X2712Y1722D03*
G54D27*
X7993Y3042D03*
X8760Y3042D03*
X8504Y3042D03*
X8248Y3042D03*
X9528Y3042D03*
X9272Y3042D03*
X9016Y3042D03*
X10040Y3042D03*
X9784Y3042D03*
X10296Y3042D03*
X10807Y3042D03*
X10552Y3042D03*
X7993Y5758D03*
X8760Y5758D03*
X8504Y5758D03*
X8248Y5758D03*
X9528Y5758D03*
X9272Y5758D03*
X9016Y5758D03*
X10040Y5758D03*
X9784Y5758D03*
X10296Y5758D03*
X10807Y5758D03*
X10552Y5758D03*

M02*
