M48
INCH,TZ
VER,1
FMAT,2
DETECT,ON
ATC,ON
T1C0.0354
T2C0.0350
T3C0.0236
T4C0.0392
T5C0.0140
T6C0.0315
%
T1
X0.0928Y1.5103
Y0.9985
X0.2128Y1.0801
Y1.1785
X0.8000Y1.4800
X0.8020Y1.6800
X0.9200Y1.4800
X0.9220Y1.6800
X0.8721Y0.8000
X0.8741Y1.0000
X0.7600Y0.8000
X0.7620Y1.0000
X0.6600
X0.6580Y0.8000
X0.2128Y1.3970
Y1.2985
X0.5518Y0.8800
X0.0400
X0.0728Y0.7703
Y0.2585
X0.1928Y0.7703
Y0.2585
X0.3128Y0.7703
Y0.2585
X0.4328Y0.7703
Y0.2585
X0.9982Y0.8200
X1.5100
X1.5118Y0.7000
X1.0000
X1.0200Y0.1800
X0.8200Y0.1820
X0.5400Y0.1850
X0.7400Y0.1830
X1.1831Y0.1780
X1.3800
X1.3819Y0.5620
X1.1850
X0.9850Y0.9182
Y1.4300
X1.0950Y1.4318
Y0.9200
X1.4928Y1.0650
X1.3550
X1.4928Y1.4250
X1.3550
X1.0282Y1.6500
X1.5400
X0.8950Y0.7050
X0.6950Y0.7070
X0.6350Y0.5750
X0.7350
X1.2000Y0.9650
X1.2020Y1.1650
X1.2100Y1.5250
X1.2080Y1.3250
X1.3819Y0.3020
X1.1850
X1.3819Y0.4320
X1.1850
X1.4950Y0.3750
X1.4930Y0.1750
T2
X0.3728Y1.1385
Y1.3302
X0.8000Y0.0500
X1.1750
X1.2750
X0.5400Y0.6400
X0.6200Y0.0500
X0.3800Y1.6450
X0.2800
X0.4800
T3
X0.7900Y1.2400
X0.7300Y1.1800
X0.5100Y1.1100
X0.9000Y0.6400
X0.9800
X0.7000Y0.2900
X0.7600
X0.5800Y1.3100
X0.8700Y1.2900
X0.0700Y0.1500
X0.9400Y0.2400
T4
X0.9000Y0.0500
X1.0750
X0.5400Y0.7400
X0.5200Y0.0500
X0.1800Y1.6450
T5
X0.8400Y0.4000
X0.8900
X0.9400
X0.9900
X1.0400
X0.8400Y0.4800
X0.8900
Y0.4400
X0.8400
X0.9400Y0.4800
Y0.4400
X0.9900Y0.4800
X1.0400
Y0.4400
X0.9900
T6
X0.5816Y0.3800
X0.6800
X0.6400Y1.6387
Y1.5600
M30
