G04 Generated by Ultiboard 13.0 *
%FSLAX24Y24*%
%MOIN*%

%ADD10C,0.0001*%
%ADD11C,0.0080*%
%ADD12C,0.0039*%
%ADD13C,0.0061*%
%ADD14C,0.0079*%
%ADD15C,0.0098*%
%ADD16C,0.0197*%
%ADD17C,0.0001*%
%ADD18C,0.0037*%
%ADD19C,0.0100*%


G04 ColorRGB FFFF00 for the following layer *
%LNSilkscreen Top*%
%LPD*%
G54D10*
G54D11*
X667Y12352D02*
X667Y12746D01*
X824Y12746D01*
X902Y12667D01*
X902Y12628D01*
X824Y12549D01*
X667Y12549D01*
X706Y12549D02*
X902Y12352D01*
X1059Y12667D02*
X1137Y12746D01*
X1137Y12352D01*
X1020Y12352D02*
X1255Y12352D01*
X3383Y10956D02*
X3716Y10658D01*
X3383Y10658D02*
X3716Y10956D01*
X3939Y10896D02*
X4050Y10956D01*
X4050Y10658D01*
X3883Y10658D02*
X4216Y10658D01*
X4728Y11094D02*
X4728Y13594D01*
X4478Y11094D02*
X4478Y13594D01*
X2978Y11094D02*
X2978Y13594D01*
X2728Y11094D02*
X2728Y13594D01*
X4078Y12194D02*
X4078Y12494D01*
X3378Y12494D02*
X3378Y12194D01*
X2728Y11094D02*
X2731Y11006D01*
X2743Y10920D01*
X2762Y10835D01*
X2788Y10752D01*
X2821Y10671D01*
X2862Y10594D01*
X2908Y10520D01*
X2962Y10451D01*
X3020Y10387D01*
X3085Y10328D01*
X3154Y10274D01*
X3228Y10228D01*
X3305Y10187D01*
X3386Y10154D01*
X3469Y10128D01*
X3554Y10109D01*
X3640Y10097D01*
X3728Y10094D01*
X3815Y10097D01*
X3901Y10109D01*
X3986Y10128D01*
X4070Y10154D01*
X4150Y10187D01*
X4228Y10228D01*
X4301Y10274D01*
X4370Y10328D01*
X4435Y10387D01*
X4494Y10451D01*
X4547Y10520D01*
X4594Y10594D01*
X4634Y10671D01*
X4667Y10752D01*
X4693Y10835D01*
X4712Y10920D01*
X4724Y11006D01*
X4728Y11094D01*
X4728Y11094D01*
X2978Y11094D02*
X2980Y11028D01*
X2989Y10963D01*
X3003Y10900D01*
X3023Y10837D01*
X3048Y10777D01*
X3078Y10719D01*
X3113Y10663D01*
X3153Y10612D01*
X3197Y10563D01*
X3245Y10519D01*
X3297Y10479D01*
X3353Y10444D01*
X3411Y10414D01*
X3471Y10389D01*
X3533Y10369D01*
X3597Y10355D01*
X3662Y10346D01*
X3728Y10344D01*
X3793Y10346D01*
X3858Y10355D01*
X3922Y10369D01*
X3984Y10389D01*
X4045Y10414D01*
X4103Y10444D01*
X4158Y10479D01*
X4210Y10519D01*
X4258Y10563D01*
X4302Y10612D01*
X4342Y10663D01*
X4377Y10719D01*
X4407Y10777D01*
X4432Y10837D01*
X4452Y10900D01*
X4466Y10963D01*
X4475Y11028D01*
X4478Y11094D01*
X4478Y11094D01*
X3378Y12194D02*
X4078Y12194D01*
X3928Y12094D02*
X3528Y12094D01*
X3528Y12044D02*
X3928Y12044D01*
X3728Y12044D02*
X3728Y11894D01*
X4728Y13594D02*
X4724Y13681D01*
X4712Y13767D01*
X4693Y13852D01*
X4667Y13936D01*
X4634Y14016D01*
X4594Y14094D01*
X4547Y14167D01*
X4494Y14236D01*
X4435Y14301D01*
X4370Y14360D01*
X4301Y14413D01*
X4228Y14460D01*
X4150Y14500D01*
X4070Y14533D01*
X3986Y14560D01*
X3901Y14578D01*
X3815Y14590D01*
X3728Y14594D01*
X3640Y14590D01*
X3554Y14578D01*
X3469Y14560D01*
X3386Y14533D01*
X3305Y14500D01*
X3228Y14460D01*
X3154Y14413D01*
X3085Y14360D01*
X3020Y14301D01*
X2962Y14236D01*
X2908Y14167D01*
X2862Y14094D01*
X2821Y14016D01*
X2788Y13936D01*
X2762Y13852D01*
X2743Y13767D01*
X2731Y13681D01*
X2728Y13594D01*
X4478Y13594D02*
X4475Y13659D01*
X4466Y13724D01*
X4452Y13788D01*
X4432Y13850D01*
X4407Y13911D01*
X4377Y13969D01*
X4342Y14024D01*
X4302Y14076D01*
X4258Y14124D01*
X4210Y14168D01*
X4158Y14208D01*
X4103Y14243D01*
X4045Y14273D01*
X3984Y14298D01*
X3922Y14318D01*
X3858Y14332D01*
X3793Y14341D01*
X3728Y14344D01*
X3662Y14341D01*
X3597Y14332D01*
X3533Y14318D01*
X3471Y14298D01*
X3411Y14273D01*
X3353Y14243D01*
X3297Y14208D01*
X3245Y14168D01*
X3197Y14124D01*
X3153Y14076D01*
X3113Y14024D01*
X3078Y13969D01*
X3048Y13911D01*
X3023Y13850D01*
X3003Y13788D01*
X2989Y13724D01*
X2980Y13659D01*
X2978Y13594D01*
X3378Y12494D02*
X4078Y12494D01*
X3528Y12594D02*
X3928Y12594D01*
X3528Y12644D02*
X3928Y12644D01*
X3728Y12644D02*
X3728Y12794D01*
X2739Y8667D02*
X2739Y9061D01*
X2896Y9061D01*
X2974Y8982D01*
X2974Y8943D01*
X2896Y8864D01*
X2739Y8864D01*
X2778Y8864D02*
X2974Y8667D01*
X3092Y8746D02*
X3170Y8667D01*
X3249Y8667D01*
X3327Y8746D01*
X3327Y8903D01*
X3327Y8982D01*
X3249Y9061D01*
X3170Y9061D01*
X3092Y8982D01*
X3092Y8903D01*
X3170Y8824D01*
X3249Y8824D01*
X3327Y8903D01*
X267Y4952D02*
X267Y5346D01*
X424Y5346D01*
X502Y5267D01*
X502Y5228D01*
X424Y5149D01*
X267Y5149D01*
X306Y5149D02*
X502Y4952D01*
X659Y5267D02*
X737Y5346D01*
X737Y4952D01*
X620Y4952D02*
X855Y4952D01*
X1011Y5267D02*
X1090Y5346D01*
X1090Y4952D01*
X972Y4952D02*
X1207Y4952D01*
X1667Y4952D02*
X1667Y5346D01*
X1824Y5346D01*
X1902Y5267D01*
X1902Y5228D01*
X1824Y5149D01*
X1667Y5149D01*
X1706Y5149D02*
X1902Y4952D01*
X2059Y5307D02*
X2098Y5346D01*
X2176Y5346D01*
X2255Y5267D01*
X2255Y5188D01*
X2215Y5149D01*
X2255Y5110D01*
X2255Y5031D01*
X2176Y4952D01*
X2098Y4952D01*
X2059Y4992D01*
X2098Y5149D02*
X2215Y5149D01*
X2767Y4952D02*
X2767Y5346D01*
X2924Y5346D01*
X3002Y5267D01*
X3002Y5228D01*
X2924Y5149D01*
X2767Y5149D01*
X2806Y5149D02*
X3002Y4952D01*
X3120Y5267D02*
X3198Y5346D01*
X3276Y5346D01*
X3355Y5267D01*
X3355Y5228D01*
X3120Y4952D01*
X3355Y4952D01*
X3355Y4992D01*
X4067Y4952D02*
X4067Y5346D01*
X4224Y5346D01*
X4302Y5267D01*
X4302Y5228D01*
X4224Y5149D01*
X4067Y5149D01*
X4106Y5149D02*
X4302Y4952D01*
X4655Y5110D02*
X4420Y5110D01*
X4615Y5346D01*
X4615Y4952D01*
X4576Y4952D02*
X4655Y4952D01*
X9456Y132D02*
X9567Y73D01*
X9678Y73D01*
X9789Y132D01*
X9789Y370D01*
X9956Y311D02*
X10067Y370D01*
X10178Y370D01*
X10289Y311D01*
X10289Y281D01*
X9956Y73D01*
X10289Y73D01*
X10289Y102D01*
X7500Y1000D02*
X9500Y1000D01*
X8750Y0D02*
X9500Y0D01*
X9500Y1000D01*
X7500Y0D02*
X8417Y0D01*
X8583Y0D02*
X8583Y333D01*
X8667Y83D02*
X8583Y0D01*
X7500Y0D02*
X7500Y1000D01*
X13406Y132D02*
X13517Y73D01*
X13628Y73D01*
X13739Y132D01*
X13739Y370D01*
X14239Y370D02*
X13906Y370D01*
X13906Y251D01*
X14128Y251D01*
X14239Y192D01*
X14239Y132D01*
X14128Y73D01*
X13906Y73D01*
X10250Y1000D02*
X10250Y0D01*
X13250Y1000D02*
X13250Y0D01*
X13250Y1000D02*
X11250Y1000D01*
X11000Y1000D02*
X10250Y1000D01*
X11167Y1000D02*
X11167Y667D01*
X11083Y917D02*
X11167Y1000D01*
X13250Y0D02*
X10250Y0D01*
X12239Y7967D02*
X12239Y8361D01*
X12396Y8361D01*
X12474Y8282D01*
X12474Y8243D01*
X12396Y8164D01*
X12239Y8164D01*
X12278Y8164D02*
X12474Y7967D01*
X12749Y7967D02*
X12670Y7967D01*
X12592Y8046D01*
X12592Y8124D01*
X12631Y8164D01*
X12592Y8203D01*
X12592Y8282D01*
X12670Y8361D01*
X12749Y8361D01*
X12827Y8282D01*
X12827Y8203D01*
X12788Y8164D01*
X12827Y8124D01*
X12827Y8046D01*
X12749Y7967D01*
X12631Y8164D02*
X12788Y8164D01*
X12139Y6767D02*
X12139Y7161D01*
X12296Y7161D01*
X12374Y7082D01*
X12374Y7043D01*
X12296Y6964D01*
X12139Y6964D01*
X12178Y6964D02*
X12374Y6767D01*
X12531Y7082D02*
X12610Y7161D01*
X12610Y6767D01*
X12492Y6767D02*
X12727Y6767D01*
X12845Y7082D02*
X12923Y7161D01*
X13001Y7161D01*
X13080Y7082D01*
X13080Y6846D01*
X13001Y6767D01*
X12923Y6767D01*
X12845Y6846D01*
X12845Y7082D01*
X13080Y7082D02*
X12845Y6846D01*
X9589Y11567D02*
X9589Y11961D01*
X9746Y11961D01*
X9824Y11882D01*
X9824Y11843D01*
X9746Y11764D01*
X9589Y11764D01*
X9628Y11764D02*
X9824Y11567D01*
X10177Y11961D02*
X9942Y11961D01*
X9942Y11803D01*
X10099Y11803D01*
X10177Y11724D01*
X10177Y11646D01*
X10099Y11567D01*
X9942Y11567D01*
X10589Y11567D02*
X10589Y11961D01*
X10746Y11961D01*
X10824Y11882D01*
X10824Y11843D01*
X10746Y11764D01*
X10589Y11764D01*
X10628Y11764D02*
X10824Y11567D01*
X11138Y11961D02*
X11020Y11961D01*
X10942Y11882D01*
X10942Y11724D01*
X10942Y11646D01*
X11020Y11567D01*
X11099Y11567D01*
X11177Y11646D01*
X11177Y11724D01*
X11099Y11803D01*
X11020Y11803D01*
X10942Y11724D01*
X14324Y9596D02*
X14246Y9517D01*
X14168Y9517D01*
X14089Y9596D01*
X14089Y9832D01*
X14168Y9911D01*
X14246Y9911D01*
X14324Y9832D01*
X14481Y9832D02*
X14560Y9911D01*
X14560Y9517D01*
X14442Y9517D02*
X14677Y9517D01*
X14795Y9832D02*
X14873Y9911D01*
X14951Y9911D01*
X15030Y9832D01*
X15030Y9596D01*
X14951Y9517D01*
X14873Y9517D01*
X14795Y9596D01*
X14795Y9832D01*
X15030Y9832D02*
X14795Y9596D01*
X12684Y10689D02*
G75*
D01*
G02X12684Y10689I1575J0*
G01*
X14324Y13196D02*
X14246Y13117D01*
X14168Y13117D01*
X14089Y13196D01*
X14089Y13432D01*
X14168Y13511D01*
X14246Y13511D01*
X14324Y13432D01*
X14442Y13196D02*
X14520Y13117D01*
X14599Y13117D01*
X14677Y13196D01*
X14677Y13353D01*
X14677Y13432D01*
X14599Y13511D01*
X14520Y13511D01*
X14442Y13432D01*
X14442Y13353D01*
X14520Y13274D01*
X14599Y13274D01*
X14677Y13353D01*
X12684Y14289D02*
G75*
D01*
G02X12684Y14289I1575J0*
G01*
X12539Y16367D02*
X12539Y16761D01*
X12696Y16761D01*
X12774Y16682D01*
X12774Y16643D01*
X12696Y16564D01*
X12539Y16564D01*
X12578Y16564D02*
X12774Y16367D01*
X13010Y16367D02*
X13010Y16564D01*
X13127Y16682D01*
X13127Y16761D01*
X12892Y16761D01*
X12892Y16682D01*
X7107Y4932D02*
X7048Y4873D01*
X6989Y4873D01*
X6930Y4932D01*
X6930Y5111D01*
X6989Y5170D01*
X7048Y5170D01*
X7107Y5111D01*
X7196Y5111D02*
X7256Y5170D01*
X7315Y5170D01*
X7374Y5111D01*
X7374Y5081D01*
X7196Y4873D01*
X7374Y4873D01*
X7374Y4902D01*
X7641Y4992D02*
X7463Y4992D01*
X7611Y5170D01*
X7611Y4873D01*
X7581Y4873D02*
X7641Y4873D01*
X6074Y2946D02*
X5996Y2867D01*
X5918Y2867D01*
X5839Y2946D01*
X5839Y3182D01*
X5918Y3261D01*
X5996Y3261D01*
X6074Y3182D01*
X6192Y3182D02*
X6270Y3261D01*
X6349Y3261D01*
X6427Y3182D01*
X6427Y3143D01*
X6192Y2867D01*
X6427Y2867D01*
X6427Y2906D01*
X6584Y3221D02*
X6623Y3261D01*
X6701Y3261D01*
X6780Y3182D01*
X6780Y3103D01*
X6741Y3064D01*
X6780Y3024D01*
X6780Y2946D01*
X6701Y2867D01*
X6623Y2867D01*
X6584Y2906D01*
X6623Y3064D02*
X6741Y3064D01*
X5087Y3761D02*
G75*
D01*
G02X5087Y3761I1241J0*
G01*
X4956Y8132D02*
X5067Y8073D01*
X5178Y8073D01*
X5289Y8132D01*
X5289Y8370D01*
X5678Y8073D02*
X5567Y8073D01*
X5456Y8132D01*
X5456Y8192D01*
X5511Y8221D01*
X5456Y8251D01*
X5456Y8311D01*
X5567Y8370D01*
X5678Y8370D01*
X5789Y8311D01*
X5789Y8251D01*
X5733Y8221D01*
X5789Y8192D01*
X5789Y8132D01*
X5678Y8073D01*
X5511Y8221D02*
X5733Y8221D01*
X4900Y5900D02*
X4900Y7900D01*
X5900Y7150D02*
X5900Y7900D01*
X4900Y7900D01*
X5900Y5900D02*
X5900Y6817D01*
X5900Y6983D02*
X5567Y6983D01*
X5817Y7067D02*
X5900Y6983D01*
X5900Y5900D02*
X4900Y5900D01*
X6656Y132D02*
X6767Y73D01*
X6878Y73D01*
X6989Y132D01*
X6989Y370D01*
X7489Y192D02*
X7156Y192D01*
X7433Y370D01*
X7433Y73D01*
X7378Y73D02*
X7489Y73D01*
X6700Y0D02*
X4700Y0D01*
X5450Y1000D02*
X4700Y1000D01*
X4700Y0D01*
X6700Y1000D02*
X5783Y1000D01*
X5617Y1000D02*
X5617Y667D01*
X5533Y917D02*
X5617Y1000D01*
X6700Y1000D02*
X6700Y0D01*
X5774Y15946D02*
X5696Y15867D01*
X5618Y15867D01*
X5539Y15946D01*
X5539Y16182D01*
X5618Y16261D01*
X5696Y16261D01*
X5774Y16182D01*
X6049Y15867D02*
X5970Y15867D01*
X5892Y15946D01*
X5892Y16024D01*
X5931Y16064D01*
X5892Y16103D01*
X5892Y16182D01*
X5970Y16261D01*
X6049Y16261D01*
X6127Y16182D01*
X6127Y16103D01*
X6088Y16064D01*
X6127Y16024D01*
X6127Y15946D01*
X6049Y15867D01*
X5931Y16064D02*
X6088Y16064D01*
X5416Y15954D02*
G75*
D01*
G02X5416Y15954I984J0*
G01*
X5156Y16832D02*
X5267Y16773D01*
X5378Y16773D01*
X5489Y16832D01*
X5489Y17070D01*
X5933Y17070D02*
X5767Y17070D01*
X5656Y17011D01*
X5656Y16892D01*
X5656Y16832D01*
X5767Y16773D01*
X5878Y16773D01*
X5989Y16832D01*
X5989Y16892D01*
X5878Y16951D01*
X5767Y16951D01*
X5656Y16892D01*
X5300Y15950D02*
X1300Y15950D01*
X5300Y16950D02*
X2300Y16950D01*
X1300Y16950D02*
X1300Y15950D01*
X2050Y16950D02*
X1300Y16950D01*
X2217Y16950D02*
X2217Y16617D01*
X2133Y16867D02*
X2217Y16950D01*
X5300Y16950D02*
X5300Y15950D01*
G54D12*
X420Y11166D02*
X1424Y11166D01*
X1424Y13922D01*
X420Y13922D01*
X420Y11166D01*
X928Y10536D02*
X928Y11166D01*
X928Y13922D02*
X928Y14592D01*
X1629Y12061D02*
X1629Y10590D01*
G75*
D01*
G03X1878Y10341I249J0*
G01*
X2364Y10341D01*
G75*
D01*
G03X2613Y10590I0J249*
G01*
X2613Y12061D01*
G74*
D01*
G03X2364Y12310I249J0*
G01*
X1878Y12310D01*
G75*
D01*
G03X1629Y12061I0J-249*
G01*
X7528Y16564D02*
X7528Y15028D01*
X8551Y16564D02*
X8551Y15028D01*
X8728Y16564D02*
X8728Y15028D01*
X9751Y16564D02*
X9751Y15028D01*
X8249Y9764D02*
X8249Y8228D01*
X9272Y9764D02*
X9272Y8228D01*
X7128Y9764D02*
X7128Y8228D01*
X8151Y9764D02*
X8151Y8228D01*
X7072Y8236D02*
X7072Y9772D01*
X6049Y8236D02*
X6049Y9772D01*
X1642Y14180D02*
X1642Y12710D01*
G75*
D01*
G03X1891Y12461I249J0*
G01*
X2378Y12461D01*
G75*
D01*
G03X2627Y12710I0J249*
G01*
X2627Y14180D01*
G74*
D01*
G03X2378Y14429I249J0*
G01*
X1891Y14429D01*
G75*
D01*
G03X1642Y14180I0J-249*
G01*
X1581Y9308D02*
X4337Y9308D01*
X4337Y8304D01*
X1581Y8304D01*
X1581Y9308D01*
X951Y8800D02*
X1581Y8800D01*
X4337Y8800D02*
X5006Y8800D01*
X220Y3766D02*
X1224Y3766D01*
X1224Y6522D01*
X220Y6522D01*
X220Y3766D01*
X728Y3136D02*
X728Y3766D01*
X728Y6522D02*
X728Y7192D01*
X1420Y3766D02*
X2424Y3766D01*
X2424Y6522D01*
X1420Y6522D01*
X1420Y3766D01*
X1928Y3136D02*
X1928Y3766D01*
X1928Y6522D02*
X1928Y7192D01*
X2620Y3766D02*
X3624Y3766D01*
X3624Y6522D01*
X2620Y6522D01*
X2620Y3766D01*
X3128Y3136D02*
X3128Y3766D01*
X3128Y6522D02*
X3128Y7192D01*
X3820Y3766D02*
X4824Y3766D01*
X4824Y6522D01*
X3820Y6522D01*
X3820Y3766D01*
X4328Y3136D02*
X4328Y3766D01*
X4328Y6522D02*
X4328Y7192D01*
X13919Y7692D02*
X11163Y7692D01*
X11163Y8696D01*
X13919Y8696D01*
X13919Y7692D01*
X14549Y8200D02*
X13919Y8200D01*
X11163Y8200D02*
X10494Y8200D01*
X11181Y7508D02*
X13937Y7508D01*
X13937Y6504D01*
X11181Y6504D01*
X11181Y7508D01*
X10551Y7000D02*
X11181Y7000D01*
X13937Y7000D02*
X14606Y7000D01*
X8436Y1328D02*
X9972Y1328D01*
X8436Y2351D02*
X9972Y2351D01*
X7164Y2322D02*
X5628Y2322D01*
X7164Y1299D02*
X5628Y1299D01*
X11438Y2194D02*
X11438Y1328D01*
G75*
D01*
G03X11595Y1170I157J-1*
G01*
X14036Y1170D01*
G75*
D01*
G03X14194Y1328I0J158*
G01*
X14194Y2194D01*
G74*
D01*
G03X14036Y2351I158J1*
G01*
X11595Y2351D01*
G75*
D01*
G03X11438Y2194I0J-157*
G01*
X11456Y6072D02*
X11456Y5206D01*
G75*
D01*
G03X11614Y5049I158J1*
G01*
X14055Y5049D01*
G75*
D01*
G03X14212Y5206I0J157*
G01*
X14212Y6072D01*
G74*
D01*
G03X14055Y6230I157J1*
G01*
X11614Y6230D01*
G75*
D01*
G03X11456Y6072I0J-158*
G01*
X10358Y13119D02*
X9354Y13119D01*
X9354Y10363D01*
X10358Y10363D01*
X10358Y13119D01*
X9850Y13749D02*
X9850Y13119D01*
X9850Y10363D02*
X9850Y9694D01*
X10442Y10381D02*
X11446Y10381D01*
X11446Y13137D01*
X10442Y13137D01*
X10442Y10381D01*
X10950Y9751D02*
X10950Y10381D01*
X10950Y13137D02*
X10950Y13806D01*
X14219Y15992D02*
X11463Y15992D01*
X11463Y16996D01*
X14219Y16996D01*
X14219Y15992D01*
X14849Y16500D02*
X14219Y16500D01*
X11463Y16500D02*
X10794Y16500D01*
X7186Y6578D02*
X8722Y6578D01*
X7186Y7601D02*
X8722Y7601D01*
X7626Y6222D02*
X6090Y6222D01*
X7665Y5278D02*
X6130Y5278D01*
X11528Y11414D02*
X11528Y9878D01*
X12551Y11414D02*
X12551Y9878D01*
X12572Y13486D02*
X12572Y15022D01*
X11549Y13486D02*
X11549Y15022D01*
X11456Y3472D02*
X11456Y2606D01*
G75*
D01*
G03X11614Y2449I158J1*
G01*
X14055Y2449D01*
G75*
D01*
G03X14212Y2606I0J157*
G01*
X14212Y3472D01*
G74*
D01*
G03X14055Y3630I157J1*
G01*
X11614Y3630D01*
G75*
D01*
G03X11456Y3472I0J-158*
G01*
X11456Y4772D02*
X11456Y3906D01*
G75*
D01*
G03X11614Y3749I158J1*
G01*
X14055Y3749D01*
G75*
D01*
G03X14212Y3906I0J157*
G01*
X14212Y4772D01*
G74*
D01*
G03X14055Y4930I157J1*
G01*
X11614Y4930D01*
G75*
D01*
G03X11456Y4772I0J-158*
G01*
X15422Y1986D02*
X15422Y3522D01*
X14399Y1986D02*
X14399Y3522D01*
G54D13*
X2102Y9931D02*
X2024Y9852D01*
X1945Y9852D01*
X1867Y9931D01*
X1867Y10167D01*
X1945Y10246D01*
X2024Y10246D01*
X2102Y10167D01*
X2259Y10167D02*
X2337Y10246D01*
X2337Y9852D01*
X2220Y9852D02*
X2455Y9852D01*
X7961Y15697D02*
X7882Y15618D01*
X7804Y15618D01*
X7726Y15697D01*
X7726Y15933D01*
X7804Y16012D01*
X7882Y16012D01*
X7961Y15933D01*
X8314Y15775D02*
X8078Y15775D01*
X8274Y16012D01*
X8274Y15618D01*
X8235Y15618D02*
X8314Y15618D01*
X9174Y15646D02*
X9096Y15567D01*
X9018Y15567D01*
X8939Y15646D01*
X8939Y15882D01*
X9018Y15961D01*
X9096Y15961D01*
X9174Y15882D01*
X9527Y15961D02*
X9292Y15961D01*
X9292Y15803D01*
X9449Y15803D01*
X9527Y15724D01*
X9527Y15646D01*
X9449Y15567D01*
X9292Y15567D01*
X8674Y8846D02*
X8596Y8767D01*
X8518Y8767D01*
X8439Y8846D01*
X8439Y9082D01*
X8518Y9161D01*
X8596Y9161D01*
X8674Y9082D01*
X8988Y9161D02*
X8870Y9161D01*
X8792Y9082D01*
X8792Y8924D01*
X8792Y8846D01*
X8870Y8767D01*
X8949Y8767D01*
X9027Y8846D01*
X9027Y8924D01*
X8949Y9003D01*
X8870Y9003D01*
X8792Y8924D01*
X7574Y8846D02*
X7496Y8767D01*
X7418Y8767D01*
X7339Y8846D01*
X7339Y9082D01*
X7418Y9161D01*
X7496Y9161D01*
X7574Y9082D01*
X7731Y9121D02*
X7770Y9161D01*
X7849Y9161D01*
X7927Y9082D01*
X7927Y9003D01*
X7888Y8964D01*
X7927Y8924D01*
X7927Y8846D01*
X7849Y8767D01*
X7770Y8767D01*
X7731Y8806D01*
X7770Y8964D02*
X7888Y8964D01*
X6574Y8846D02*
X6496Y8767D01*
X6418Y8767D01*
X6339Y8846D01*
X6339Y9082D01*
X6418Y9161D01*
X6496Y9161D01*
X6574Y9082D01*
X6810Y8767D02*
X6810Y8964D01*
X6927Y9082D01*
X6927Y9161D01*
X6692Y9161D01*
X6692Y9082D01*
X6839Y12861D02*
X6839Y12546D01*
X6918Y12467D01*
X6996Y12467D01*
X7074Y12546D01*
X7074Y12861D01*
X7231Y12782D02*
X7310Y12861D01*
X7310Y12467D01*
X7192Y12467D02*
X7427Y12467D01*
X2102Y14631D02*
X2024Y14552D01*
X1945Y14552D01*
X1867Y14631D01*
X1867Y14867D01*
X1945Y14946D01*
X2024Y14946D01*
X2102Y14867D01*
X2220Y14867D02*
X2298Y14946D01*
X2376Y14946D01*
X2455Y14867D01*
X2455Y14828D01*
X2220Y14552D01*
X2455Y14552D01*
X2455Y14592D01*
X8974Y1646D02*
X8896Y1567D01*
X8818Y1567D01*
X8739Y1646D01*
X8739Y1882D01*
X8818Y1961D01*
X8896Y1961D01*
X8974Y1882D01*
X9092Y1882D02*
X9170Y1961D01*
X9249Y1961D01*
X9327Y1882D01*
X9327Y1843D01*
X9092Y1567D01*
X9327Y1567D01*
X9327Y1606D01*
X9445Y1882D02*
X9523Y1961D01*
X9601Y1961D01*
X9680Y1882D01*
X9680Y1843D01*
X9445Y1567D01*
X9680Y1567D01*
X9680Y1606D01*
X6174Y1646D02*
X6096Y1567D01*
X6018Y1567D01*
X5939Y1646D01*
X5939Y1882D01*
X6018Y1961D01*
X6096Y1961D01*
X6174Y1882D01*
X6292Y1882D02*
X6370Y1961D01*
X6449Y1961D01*
X6527Y1882D01*
X6527Y1843D01*
X6292Y1567D01*
X6527Y1567D01*
X6527Y1606D01*
X6645Y1882D02*
X6723Y1961D01*
X6801Y1961D01*
X6880Y1882D01*
X6880Y1646D01*
X6801Y1567D01*
X6723Y1567D01*
X6645Y1646D01*
X6645Y1882D01*
X6880Y1882D02*
X6645Y1646D01*
X12574Y1646D02*
X12496Y1567D01*
X12418Y1567D01*
X12339Y1646D01*
X12339Y1882D01*
X12418Y1961D01*
X12496Y1961D01*
X12574Y1882D01*
X12731Y1882D02*
X12810Y1961D01*
X12810Y1567D01*
X12692Y1567D02*
X12927Y1567D01*
X13162Y1567D02*
X13162Y1764D01*
X13280Y1882D01*
X13280Y1961D01*
X13045Y1961D01*
X13045Y1882D01*
X12574Y5546D02*
X12496Y5467D01*
X12418Y5467D01*
X12339Y5546D01*
X12339Y5782D01*
X12418Y5861D01*
X12496Y5861D01*
X12574Y5782D01*
X12731Y5782D02*
X12810Y5861D01*
X12810Y5467D01*
X12692Y5467D02*
X12927Y5467D01*
X13201Y5467D02*
X13123Y5467D01*
X13045Y5546D01*
X13045Y5624D01*
X13084Y5664D01*
X13045Y5703D01*
X13045Y5782D01*
X13123Y5861D01*
X13201Y5861D01*
X13280Y5782D01*
X13280Y5703D01*
X13241Y5664D01*
X13280Y5624D01*
X13280Y5546D01*
X13201Y5467D01*
X13084Y5664D02*
X13241Y5664D01*
X7774Y6946D02*
X7696Y6867D01*
X7618Y6867D01*
X7539Y6946D01*
X7539Y7182D01*
X7618Y7261D01*
X7696Y7261D01*
X7774Y7182D01*
X7931Y7182D02*
X8010Y7261D01*
X8010Y6867D01*
X7892Y6867D02*
X8127Y6867D01*
X8245Y6946D02*
X8323Y6867D01*
X8401Y6867D01*
X8480Y6946D01*
X8480Y7103D01*
X8480Y7182D01*
X8401Y7261D01*
X8323Y7261D01*
X8245Y7182D01*
X8245Y7103D01*
X8323Y7024D01*
X8401Y7024D01*
X8480Y7103D01*
X11774Y10546D02*
X11696Y10467D01*
X11618Y10467D01*
X11539Y10546D01*
X11539Y10782D01*
X11618Y10861D01*
X11696Y10861D01*
X11774Y10782D01*
X11931Y10782D02*
X12010Y10861D01*
X12010Y10467D01*
X11892Y10467D02*
X12127Y10467D01*
X12245Y10782D02*
X12323Y10861D01*
X12401Y10861D01*
X12480Y10782D01*
X12480Y10743D01*
X12245Y10467D01*
X12480Y10467D01*
X12480Y10506D01*
X11874Y14246D02*
X11796Y14167D01*
X11718Y14167D01*
X11639Y14246D01*
X11639Y14482D01*
X11718Y14561D01*
X11796Y14561D01*
X11874Y14482D01*
X12031Y14482D02*
X12110Y14561D01*
X12110Y14167D01*
X11992Y14167D02*
X12227Y14167D01*
X12384Y14482D02*
X12462Y14561D01*
X12462Y14167D01*
X12345Y14167D02*
X12580Y14167D01*
X12574Y2946D02*
X12496Y2867D01*
X12418Y2867D01*
X12339Y2946D01*
X12339Y3182D01*
X12418Y3261D01*
X12496Y3261D01*
X12574Y3182D01*
X12731Y3182D02*
X12810Y3261D01*
X12810Y2867D01*
X12692Y2867D02*
X12927Y2867D01*
X13084Y3221D02*
X13123Y3261D01*
X13201Y3261D01*
X13280Y3182D01*
X13280Y3103D01*
X13241Y3064D01*
X13280Y3024D01*
X13280Y2946D01*
X13201Y2867D01*
X13123Y2867D01*
X13084Y2906D01*
X13123Y3064D02*
X13241Y3064D01*
X12574Y4246D02*
X12496Y4167D01*
X12418Y4167D01*
X12339Y4246D01*
X12339Y4482D01*
X12418Y4561D01*
X12496Y4561D01*
X12574Y4482D01*
X12731Y4482D02*
X12810Y4561D01*
X12810Y4167D01*
X12692Y4167D02*
X12927Y4167D01*
X13280Y4324D02*
X13045Y4324D01*
X13241Y4561D01*
X13241Y4167D01*
X13201Y4167D02*
X13280Y4167D01*
X3839Y1646D02*
X3918Y1567D01*
X3996Y1567D01*
X4074Y1646D01*
X4074Y1961D01*
X4231Y1882D02*
X4310Y1961D01*
X4310Y1567D01*
X4192Y1567D02*
X4427Y1567D01*
X14674Y2446D02*
X14596Y2367D01*
X14518Y2367D01*
X14439Y2446D01*
X14439Y2682D01*
X14518Y2761D01*
X14596Y2761D01*
X14674Y2682D01*
X14792Y2682D02*
X14870Y2761D01*
X14949Y2761D01*
X15027Y2682D01*
X15027Y2643D01*
X14792Y2367D01*
X15027Y2367D01*
X15027Y2406D01*
X15184Y2682D02*
X15262Y2761D01*
X15262Y2367D01*
X15145Y2367D02*
X15380Y2367D01*
X10939Y5661D02*
X10939Y5346D01*
X11018Y5267D01*
X11096Y5267D01*
X11174Y5346D01*
X11174Y5661D01*
X11292Y5582D02*
X11370Y5661D01*
X11449Y5661D01*
X11527Y5582D01*
X11527Y5543D01*
X11292Y5267D01*
X11527Y5267D01*
X11527Y5306D01*
G54D14*
X9208Y11514D02*
X9208Y13286D01*
X5192Y13286D02*
X5192Y11514D01*
X9208Y11514D01*
X9208Y13286D02*
X5192Y13286D01*
X7786Y5296D02*
X7786Y3504D01*
X11014Y3504D02*
X11014Y5296D01*
X7786Y5296D01*
X7786Y3504D02*
X11014Y3504D01*
G54D15*
X5202Y10766D02*
G75*
D01*
G02X5202Y10766I49J0*
G01*
X11044Y5994D02*
G75*
D01*
G02X11044Y5994I49J0*
G01*
G54D16*
X5487Y11908D02*
G75*
D01*
G02X5487Y11908I99J0*
G01*
X10522Y4902D02*
G75*
D01*
G02X10522Y4902I98J0*
G01*
G54D17*
G36*
X13537Y9997D02*
X13537Y9997D01*
X13635Y9438D01*
X13635Y9997D01*
X13537Y9997D01*
D02*
G37*
X13635Y9438D01*
X13635Y9997D01*
X13537Y9997D01*
G36*
X13635Y9438D02*
X13635Y9438D01*
X13537Y9997D01*
X13537Y9767D01*
X13635Y9438D01*
D02*
G37*
X13537Y9997D01*
X13537Y9767D01*
X13635Y9438D01*
G36*
X13537Y9767D02*
X13537Y9767D01*
X13537Y9670D01*
X13635Y9438D01*
X13537Y9767D01*
D02*
G37*
X13537Y9670D01*
X13635Y9438D01*
X13537Y9767D01*
G36*
X13537Y9670D02*
X13537Y9670D01*
X13537Y9767D01*
X13307Y9767D01*
X13537Y9670D01*
D02*
G37*
X13537Y9767D01*
X13307Y9767D01*
X13537Y9670D01*
G36*
X13307Y9767D02*
X13307Y9767D01*
X13307Y9670D01*
X13537Y9670D01*
X13307Y9767D01*
D02*
G37*
X13307Y9670D01*
X13537Y9670D01*
X13307Y9767D01*
G36*
X13635Y9670D02*
X13635Y9670D01*
X13865Y9670D01*
X13635Y9767D01*
X13635Y9670D01*
D02*
G37*
X13865Y9670D01*
X13635Y9767D01*
X13635Y9670D01*
G36*
X13635Y9670D01*
X13635Y9997D01*
X13635Y9670D01*
D02*
G37*
X13635Y9997D01*
X13635Y9670D01*
G36*
X13635Y9670D01*
X13635Y9997D01*
X13635Y9438D01*
X13635Y9670D01*
D02*
G37*
X13635Y9997D01*
X13635Y9438D01*
X13635Y9670D01*
G36*
X13635Y9767D02*
X13635Y9767D01*
X13865Y9670D01*
X13865Y9767D01*
X13635Y9767D01*
D02*
G37*
X13865Y9670D01*
X13865Y9767D01*
X13635Y9767D01*
G36*
X13635Y9438D02*
X13635Y9438D01*
X13537Y9670D01*
X13537Y9438D01*
X13635Y9438D01*
D02*
G37*
X13537Y9670D01*
X13537Y9438D01*
X13635Y9438D01*
G36*
X13519Y13684D02*
X13519Y13684D01*
X13616Y13126D01*
X13616Y13684D01*
X13519Y13684D01*
D02*
G37*
X13616Y13126D01*
X13616Y13684D01*
X13519Y13684D01*
G36*
X13616Y13126D02*
X13616Y13126D01*
X13519Y13684D01*
X13519Y13454D01*
X13616Y13126D01*
D02*
G37*
X13519Y13684D01*
X13519Y13454D01*
X13616Y13126D01*
G36*
X13519Y13454D02*
X13519Y13454D01*
X13519Y13356D01*
X13616Y13126D01*
X13519Y13454D01*
D02*
G37*
X13519Y13356D01*
X13616Y13126D01*
X13519Y13454D01*
G36*
X13519Y13356D02*
X13519Y13356D01*
X13519Y13454D01*
X13287Y13454D01*
X13519Y13356D01*
D02*
G37*
X13519Y13454D01*
X13287Y13454D01*
X13519Y13356D01*
G36*
X13287Y13454D02*
X13287Y13454D01*
X13287Y13356D01*
X13519Y13356D01*
X13287Y13454D01*
D02*
G37*
X13287Y13356D01*
X13519Y13356D01*
X13287Y13454D01*
G36*
X13616Y13356D02*
X13616Y13356D01*
X13846Y13356D01*
X13616Y13454D01*
X13616Y13356D01*
D02*
G37*
X13846Y13356D01*
X13616Y13454D01*
X13616Y13356D01*
G36*
X13616Y13356D01*
X13616Y13684D01*
X13616Y13356D01*
D02*
G37*
X13616Y13684D01*
X13616Y13356D01*
G36*
X13616Y13356D01*
X13616Y13684D01*
X13616Y13126D01*
X13616Y13356D01*
D02*
G37*
X13616Y13684D01*
X13616Y13126D01*
X13616Y13356D01*
G36*
X13616Y13454D02*
X13616Y13454D01*
X13846Y13356D01*
X13846Y13454D01*
X13616Y13454D01*
D02*
G37*
X13846Y13356D01*
X13846Y13454D01*
X13616Y13454D01*
G36*
X13616Y13126D02*
X13616Y13126D01*
X13519Y13356D01*
X13519Y13126D01*
X13616Y13126D01*
D02*
G37*
X13519Y13356D01*
X13519Y13126D01*
X13616Y13126D01*
G36*
X6767Y4728D02*
X6767Y4728D01*
X6865Y4169D01*
X6865Y4728D01*
X6767Y4728D01*
D02*
G37*
X6865Y4169D01*
X6865Y4728D01*
X6767Y4728D01*
G36*
X6865Y4169D02*
X6865Y4169D01*
X6767Y4728D01*
X6767Y4496D01*
X6865Y4169D01*
D02*
G37*
X6767Y4728D01*
X6767Y4496D01*
X6865Y4169D01*
G36*
X6767Y4496D02*
X6767Y4496D01*
X6767Y4399D01*
X6865Y4169D01*
X6767Y4496D01*
D02*
G37*
X6767Y4399D01*
X6865Y4169D01*
X6767Y4496D01*
G36*
X6767Y4399D02*
X6767Y4399D01*
X6767Y4496D01*
X6537Y4496D01*
X6767Y4399D01*
D02*
G37*
X6767Y4496D01*
X6537Y4496D01*
X6767Y4399D01*
G36*
X6537Y4496D02*
X6537Y4496D01*
X6537Y4399D01*
X6767Y4399D01*
X6537Y4496D01*
D02*
G37*
X6537Y4399D01*
X6767Y4399D01*
X6537Y4496D01*
G36*
X6865Y4399D02*
X6865Y4399D01*
X7095Y4399D01*
X6865Y4496D01*
X6865Y4399D01*
D02*
G37*
X7095Y4399D01*
X6865Y4496D01*
X6865Y4399D01*
G36*
X6865Y4399D01*
X6865Y4728D01*
X6865Y4399D01*
D02*
G37*
X6865Y4728D01*
X6865Y4399D01*
G36*
X6865Y4399D01*
X6865Y4728D01*
X6865Y4169D01*
X6865Y4399D01*
D02*
G37*
X6865Y4728D01*
X6865Y4169D01*
X6865Y4399D01*
G36*
X6865Y4496D02*
X6865Y4496D01*
X7095Y4399D01*
X7095Y4496D01*
X6865Y4496D01*
D02*
G37*
X7095Y4399D01*
X7095Y4496D01*
X6865Y4496D01*
G36*
X6865Y4169D02*
X6865Y4169D01*
X6767Y4399D01*
X6767Y4169D01*
X6865Y4169D01*
D02*
G37*
X6767Y4399D01*
X6767Y4169D01*
X6865Y4169D01*
G36*
X5772Y15834D02*
X5772Y15834D01*
X5869Y15276D01*
X5869Y15834D01*
X5772Y15834D01*
D02*
G37*
X5869Y15276D01*
X5869Y15834D01*
X5772Y15834D01*
G36*
X5869Y15276D02*
X5869Y15276D01*
X5772Y15834D01*
X5772Y15604D01*
X5869Y15276D01*
D02*
G37*
X5772Y15834D01*
X5772Y15604D01*
X5869Y15276D01*
G36*
X5772Y15604D02*
X5772Y15604D01*
X5772Y15506D01*
X5869Y15276D01*
X5772Y15604D01*
D02*
G37*
X5772Y15506D01*
X5869Y15276D01*
X5772Y15604D01*
G36*
X5772Y15506D02*
X5772Y15506D01*
X5772Y15604D01*
X5542Y15604D01*
X5772Y15506D01*
D02*
G37*
X5772Y15604D01*
X5542Y15604D01*
X5772Y15506D01*
G36*
X5542Y15604D02*
X5542Y15604D01*
X5542Y15506D01*
X5772Y15506D01*
X5542Y15604D01*
D02*
G37*
X5542Y15506D01*
X5772Y15506D01*
X5542Y15604D01*
G36*
X5869Y15506D02*
X5869Y15506D01*
X6101Y15506D01*
X5869Y15604D01*
X5869Y15506D01*
D02*
G37*
X6101Y15506D01*
X5869Y15604D01*
X5869Y15506D01*
G36*
X5869Y15506D01*
X5869Y15834D01*
X5869Y15506D01*
D02*
G37*
X5869Y15834D01*
X5869Y15506D01*
G36*
X5869Y15506D01*
X5869Y15834D01*
X5869Y15276D01*
X5869Y15506D01*
D02*
G37*
X5869Y15834D01*
X5869Y15276D01*
X5869Y15506D01*
G36*
X5869Y15604D02*
X5869Y15604D01*
X6101Y15506D01*
X6101Y15604D01*
X5869Y15604D01*
D02*
G37*
X6101Y15506D01*
X6101Y15604D01*
X5869Y15604D01*
G36*
X5869Y15276D02*
X5869Y15276D01*
X5772Y15506D01*
X5772Y15276D01*
X5869Y15276D01*
D02*
G37*
X5772Y15506D01*
X5772Y15276D01*
X5869Y15276D01*
G54D18*
X4939Y5761D02*
X4939Y5367D01*
X5174Y5367D01*
X5527Y5367D02*
X5292Y5367D01*
X5292Y5564D01*
X5292Y5761D01*
X5527Y5761D01*
X5292Y5564D02*
X5449Y5564D01*
X5645Y5367D02*
X5801Y5367D01*
X5880Y5446D01*
X5880Y5682D01*
X5801Y5761D01*
X5645Y5761D01*
X5684Y5761D02*
X5684Y5367D01*
X304Y15643D02*
X304Y16036D01*
X186Y16036D02*
X422Y16036D01*
X539Y15643D02*
X539Y16036D01*
X696Y16036D01*
X774Y15957D01*
X774Y15918D01*
X696Y15839D01*
X539Y15839D01*
X15518Y9661D02*
X15912Y9661D01*
X15518Y9426D02*
X15912Y9426D01*
X15715Y9661D02*
X15715Y9426D01*
X15794Y9269D02*
X15794Y9151D01*
X15754Y9112D01*
X15557Y9112D01*
X15518Y9151D01*
X15518Y9269D01*
X15557Y9308D01*
X15636Y9308D01*
X15676Y9269D01*
X15676Y9112D01*
X15557Y9112D02*
X15518Y9073D01*
X15912Y8916D02*
X15597Y8916D01*
X15518Y8838D01*
X15912Y8563D02*
X15597Y8563D01*
X15518Y8485D01*
X15597Y8250D02*
X15518Y8171D01*
X15518Y8093D01*
X15597Y8015D01*
X15715Y8015D01*
X15794Y8093D01*
X15794Y8171D01*
X15715Y8250D01*
X15597Y8250D01*
X15518Y7897D02*
X15754Y7897D01*
X15794Y7897D01*
X15754Y7897D02*
X15794Y7858D01*
X15794Y7779D01*
X15754Y7740D01*
X15518Y7740D01*
X15518Y7544D02*
X15518Y7387D01*
X15597Y7309D01*
X15636Y7309D01*
X15715Y7387D01*
X15794Y7309D01*
X15833Y7309D01*
X15912Y7387D01*
X15912Y7505D01*
X15912Y7544D01*
X15715Y7505D02*
X15715Y7387D01*
X15912Y7505D02*
X15518Y7505D01*
X15597Y7192D02*
X15518Y7113D01*
X15518Y7035D01*
X15597Y6956D01*
X15715Y6956D01*
X15794Y7035D01*
X15794Y7113D01*
X15715Y7192D01*
X15597Y7192D01*
X15518Y6839D02*
X15794Y6604D01*
X15794Y6839D02*
X15518Y6604D01*
X15518Y6133D02*
X15518Y5976D01*
X15597Y5898D01*
X15833Y5898D01*
X15912Y5976D01*
X15912Y6133D01*
X15912Y6094D02*
X15518Y6094D01*
X15518Y5780D02*
X15754Y5780D01*
X15912Y5702D01*
X15912Y5624D01*
X15754Y5545D01*
X15518Y5545D01*
X15636Y5780D02*
X15636Y5545D01*
X15597Y5193D02*
X15518Y5271D01*
X15518Y5349D01*
X15597Y5428D01*
X15833Y5428D01*
X15912Y5349D01*
X15912Y5271D01*
X15833Y5193D01*
X15912Y4840D02*
X15518Y5075D01*
X15518Y4722D02*
X15754Y4722D01*
X15912Y4644D01*
X15912Y4565D01*
X15754Y4487D01*
X15518Y4487D01*
X15636Y4722D02*
X15636Y4487D01*
X15518Y4369D02*
X15912Y4369D01*
X15715Y4252D01*
X15912Y4134D01*
X15518Y4134D01*
X15518Y4017D02*
X15912Y4017D01*
X15912Y3860D01*
X15833Y3782D01*
X15794Y3782D01*
X15715Y3860D01*
X15715Y4017D01*
X15518Y3311D02*
X15912Y3311D01*
X15715Y3194D01*
X15912Y3076D01*
X15518Y3076D01*
X15518Y2958D02*
X15912Y2958D01*
X15912Y2723D01*
X15715Y2958D02*
X15715Y2802D01*
X15912Y2606D02*
X15518Y2488D01*
X15912Y2371D01*
X15872Y2214D02*
X15912Y2175D01*
X15912Y2096D01*
X15833Y2018D01*
X15754Y2018D01*
X15715Y2057D01*
X15676Y2018D01*
X15597Y2018D01*
X15518Y2096D01*
X15518Y2175D01*
X15557Y2214D01*
X15715Y2175D02*
X15715Y2057D01*
X15833Y1547D02*
X15912Y1469D01*
X15912Y1391D01*
X15833Y1312D01*
X15794Y1312D01*
X15518Y1547D01*
X15518Y1312D01*
X15557Y1312D01*
X15833Y1195D02*
X15912Y1116D01*
X15912Y1038D01*
X15833Y959D01*
X15597Y959D01*
X15518Y1038D01*
X15518Y1116D01*
X15597Y1195D01*
X15833Y1195D01*
X15833Y959D02*
X15597Y1195D01*
X15833Y803D02*
X15912Y724D01*
X15518Y724D01*
X15518Y842D02*
X15518Y607D01*
X15676Y254D02*
X15676Y489D01*
X15912Y293D01*
X15518Y293D01*
X15518Y332D02*
X15518Y254D01*
X1129Y15639D02*
X1208Y15639D01*
X1208Y15521D01*
X1129Y15443D01*
X1051Y15443D01*
X973Y15521D01*
X973Y15757D01*
X1051Y15836D01*
X1208Y15836D01*
X1325Y15443D02*
X1325Y15836D01*
X1561Y15443D01*
X1561Y15836D01*
X1678Y15443D02*
X1835Y15443D01*
X1913Y15521D01*
X1913Y15757D01*
X1835Y15836D01*
X1678Y15836D01*
X1717Y15836D02*
X1717Y15443D01*
X2384Y15443D02*
X2384Y15836D01*
X2501Y15639D01*
X2619Y15836D01*
X2619Y15443D01*
X2736Y15443D02*
X2893Y15443D01*
X2972Y15521D01*
X2972Y15757D01*
X2893Y15836D01*
X2736Y15836D01*
X2776Y15836D02*
X2776Y15443D01*
X3442Y15443D02*
X3442Y15836D01*
X3560Y15639D01*
X3677Y15836D01*
X3677Y15443D01*
X4030Y15521D02*
X3951Y15443D01*
X3873Y15443D01*
X3795Y15521D01*
X3795Y15757D01*
X3873Y15836D01*
X3951Y15836D01*
X4030Y15757D01*
X4500Y15443D02*
X4500Y15836D01*
X4618Y15639D01*
X4735Y15836D01*
X4735Y15443D01*
X4853Y15521D02*
X4931Y15443D01*
X5010Y15443D01*
X5088Y15521D01*
X4853Y15757D01*
X4931Y15836D01*
X5010Y15836D01*
X5088Y15757D01*
G54D19*
X724Y-246D02*
X3676Y-246D01*
X724Y78D02*
X724Y-246D01*
X724Y1722D02*
X724Y1122D01*
X1462Y1722D02*
X724Y1722D01*
X3676Y-246D02*
X3676Y78D01*
X3676Y1722D02*
X2938Y1722D01*
X3676Y1122D02*
X3676Y1722D01*

M02*
